<svg width="228" height="213" viewBox="0 0 228 213" fill="none" xmlns="http://www.w3.org/2000/svg">
<path d="M125.486 175.077V177.655H128.245V175.077H125.486ZM125.486 177.655V180.232H128.245V177.655H125.486ZM131.004 180.232V182.807H133.763V180.23L131.004 180.232ZM128.245 180.232V182.807H131.004V180.23L128.245 180.232ZM125.486 180.232V182.807H128.245V180.23L125.486 180.232ZM128.245 177.655V180.232H131.004V177.655H128.245ZM131.004 175.077V177.655H133.763V175.077H131.004ZM153.458 164.019V161.441H150.699V164.019H153.458ZM153.458 161.441V158.864H150.699V161.441H153.458ZM147.969 158.864V156.286H145.21V158.864H147.969ZM150.728 158.864V156.286H147.969V158.864H150.728ZM153.488 158.864V156.286H150.728V158.864H153.488ZM150.728 161.441V158.864H147.969V161.441H150.728ZM147.969 164.019V161.441H145.21V164.019H147.969ZM125.515 164.019V161.441H128.274V164.019H125.515ZM125.515 161.441V158.864H128.274V161.441H125.515ZM131.034 158.864V156.286H133.791V158.864H131.034ZM128.274 158.864V156.286H131.034V158.864H128.274ZM125.515 158.864V156.286H128.274V158.864H125.515ZM128.274 161.441V158.864H131.034V161.441H128.274ZM131.034 164.019V161.441H133.791V164.019H131.034ZM153.458 175.077V177.655H150.698V175.077H153.458ZM153.458 177.655V180.233H150.698V177.655H153.458ZM147.939 180.233V182.807H145.18V180.23L147.939 180.233ZM150.698 180.233V182.807H147.97V180.23L150.698 180.233ZM153.458 180.233V182.807H150.698V180.23L153.458 180.233ZM150.698 177.655V180.233H147.97V177.655H150.698ZM147.97 175.077V177.655H145.21V175.077H147.97ZM32.5586 175.077V177.655H35.3178V175.077H32.5586ZM32.5586 177.655L32.5586 180.233H35.3178L35.3178 177.655H32.5586ZM38.0771 180.233V182.807H40.8057V180.23L38.0771 180.233ZM35.3178 180.233V182.807H38.0771V180.23L35.3178 180.233ZM32.5586 180.233V182.807H35.3178V180.23L32.5586 180.233ZM35.3178 177.655L35.3178 180.233H38.0771L38.0771 177.655H35.3178ZM38.0771 175.077V177.655H40.8057V175.077H38.0771ZM60.531 164.02V161.442H57.7718V164.02H60.531ZM60.531 161.442V158.864H57.7718V161.442H60.531ZM54.9824 158.864V156.286H52.2232V158.864H54.9824ZM57.7491 158.864V156.286H54.9824V158.864H57.7491ZM60.5083 158.864V156.286H57.7491V158.864H60.5083ZM57.7491 161.442V158.864H54.9824V161.442H57.7491ZM54.9824 164.02V161.442H52.2232V164.02H54.9824ZM32.5359 164.02V161.442H35.2951V164.02H32.5359ZM32.5359 161.442V158.864H35.2951V161.442H32.5359ZM38.0544 158.864V156.286H40.8057V158.864H38.0544ZM35.2951 158.864V156.286H38.0544V158.864H35.2951ZM32.5359 158.864V156.286H35.2951V158.864H32.5359ZM35.2951 161.442V158.864H38.0544V161.442H35.2951ZM38.0544 164.02V161.442H40.8057V164.02H38.0544ZM60.5083 175.078V177.656H57.7491V175.078H60.5083ZM60.5083 177.656L60.5083 180.233H57.7491L57.7491 177.656H60.5083ZM54.9824 180.233V182.807H52.2232V180.23L54.9824 180.233ZM57.7491 180.233V182.807H54.9824V180.23L57.7491 180.233ZM60.5083 180.233V182.807H57.7491V180.23L60.5083 180.233ZM57.7491 177.656L57.7491 180.233H54.9824L54.9824 177.656H57.7491ZM54.9824 175.078V177.656H52.2232V175.078H54.9824ZM65.2341 197.068V199.859H68.2218V197.068H65.2341ZM80.1349 188.695V191.486H83.1839V188.695H80.1349ZM68.1838 199.867V202.658H71.1716V199.867H68.1838ZM68.1838 197.076V199.867H71.1716V197.076H68.1838ZM68.1838 194.284V197.076H71.1716V194.281L68.1838 194.284ZM71.1716 197.076V199.867H74.19V197.076H71.1716ZM71.1716 194.284V197.076H74.19V194.281L71.1716 194.284ZM71.1716 191.486V194.284H74.19V191.486H71.1716ZM74.1594 194.284V197.076H77.1472V194.281L74.1594 194.284ZM74.1594 191.486V194.284H77.1472V191.486H74.1594ZM74.1594 188.695V191.486H77.1472V188.695H74.1594ZM77.1472 191.486V194.284H80.1349V191.486H77.1472ZM77.1472 188.695V191.486H80.1349V188.695H77.1472ZM77.1472 185.904V188.695H80.1349V185.904H77.1472ZM120.729 197.076V199.867H117.742V197.076H120.729ZM105.813 188.694V191.492H102.825V188.694H105.813ZM117.772 199.866V202.657H114.784V199.866H117.772ZM117.772 197.075V199.866H114.784V197.075H117.772ZM117.772 194.284V197.075H114.784V194.281L117.772 194.284ZM114.784 197.075V199.866H111.797V197.075H114.784ZM114.784 194.284V197.075H111.797V194.281L114.784 194.284ZM114.784 191.493V194.284H111.797V191.493H114.784ZM111.797 194.284V197.075H108.809V194.281L111.797 194.284ZM111.797 191.493V194.284H108.809V191.493H111.797ZM111.797 188.695V191.493H108.809V188.695H111.797ZM108.809 191.493V194.284L105.814 194.284V191.493L108.809 191.493ZM108.809 188.695V191.493L105.814 191.493V188.695L108.809 188.695ZM108.809 185.903V188.695L105.814 188.695V185.903H108.809ZM69.2737 212.961H63.3668L58.687 208.632L54.0298 212.983H48.1229L49.6091 211.602L57.2313 204.477L58.7091 203.089L60.1953 204.477L66.3308 210.209L90.0425 188.043L83.8838 182.283L82.4202 180.923L83.898 179.499L91.5197 172.379L93.044 170.998V176.588L88.3868 180.939L93.044 185.29V190.829L69.3244 212.981L69.2737 212.961ZM83.3819 212.961H77.4522L78.93 211.58L91.507 199.828L93.0313 198.439V203.979L83.4199 212.958L83.3819 212.961ZM108.534 212.961L102.605 212.961L92.9938 203.979V198.446L94.4716 199.835L107.048 211.583L108.534 212.964L108.534 212.961ZM92.9938 171.033L94.4716 172.413L102.093 179.534L103.58 180.958L102.093 182.338L95.9578 188.077L119.669 210.229L125.813 204.497L127.291 203.109L128.777 204.499L136.399 211.619L137.877 212.999H131.963L127.29 208.627L122.633 212.978H116.718L92.9938 190.828V185.273L97.6663 180.922L92.9938 176.586V171.033ZM19.5567 209.097H16.7974V206.49H19.5567V209.097ZM22.3159 211.674H19.5567V209.097H22.3159V211.674ZM19.5567 211.674H16.7974V209.097H19.5567V211.674ZM16.7974 211.674H14.0377V209.097H16.7969L16.7974 211.674ZM6.96539 194.73V197.307H4.20613V194.73H6.96539ZM4.20613 192.152V194.73H1.4469V192.152H4.20613ZM4.20613 194.73V197.307H1.4469V194.73H4.20613ZM4.20613 197.307V199.885H1.4469V197.307H4.20613ZM19.648 199.621V197.043H16.8734V199.621H19.648ZM5.85229 207.353V204.776H3.08566V207.353H5.85229ZM16.8734 197.043V194.465H14.1142V197.043H16.8734ZM16.8734 199.621V197.043H14.1142V199.621H16.8734ZM16.8734 202.198V199.621H14.1142V202.22L16.8734 202.198ZM14.1147 199.621V197.043H11.3555V199.621H14.1147ZM14.1147 202.198V199.621H11.3555V202.22L14.1147 202.198ZM14.1147 204.776V202.22H11.3555V204.798L14.1147 204.776ZM11.3402 202.22V199.642H8.58092V202.22H11.3402ZM11.3402 204.798V202.22H8.58092V204.798H11.3402ZM11.3402 207.376V204.798H8.58092V207.376H11.3402ZM8.58092 204.798V202.22H5.82167V204.798H8.58092ZM8.58092 207.376V204.798H5.82167V207.376H8.58092ZM4.17554 212.986H1.41629V211.698H4.17554V212.986ZM25.0757 212.986H22.3165V211.698H19.5572V212.986H16.798V211.698H19.5572V212.986H22.3165V211.698H25.0757V212.986ZM8.58199 209.953V207.376H5.82274V209.953H8.58199ZM205.471 209.099H202.712V206.492H205.47L205.471 209.099ZM208.23 211.676H205.471V209.099H208.229L208.23 211.676ZM205.471 211.676H202.712V209.099H205.47L205.471 211.676ZM202.712 211.676H199.952V209.099H202.711L202.712 211.676ZM166.431 206.493H169.19V209.071H166.43L166.431 206.493ZM163.672 209.071H166.431L166.431 211.648H163.672V209.071ZM166.431 209.071H169.19L169.19 211.648H166.43L166.431 209.071ZM169.191 209.071H171.95L171.95 211.648H169.191L169.191 209.071ZM181.812 194.73V197.307H179.052V194.73H181.812ZM192.848 194.73V197.307H190.089V194.73H192.848ZM190.089 192.152V194.73H187.33V192.152H190.089ZM190.089 194.73V197.307H187.33V194.73H190.089ZM190.089 197.307V199.885H187.33V197.307H190.089ZM187.33 189.575V192.152H184.555V189.575H187.33ZM187.33 192.152V194.73H184.555V192.152H187.33ZM187.33 194.73V197.307L184.555 197.308V194.73L187.33 194.73ZM184.555 192.152V194.73H181.811V192.152H184.555ZM184.555 194.73V197.308H181.811V194.73L184.555 194.73ZM184.555 197.308V199.885H181.811V197.308H184.555ZM187.314 209.099L187.314 211.677H184.555L184.555 209.099H187.314ZM166.4 199.621V197.043H169.16V199.621H166.4ZM180.196 207.353V204.776H182.955V207.353H180.196ZM169.16 197.043V194.465H171.918V197.043H169.16ZM169.16 199.621V197.043H171.918V199.621H169.16ZM169.16 202.198V199.621H171.918V202.22L169.16 202.198ZM171.918 199.621V197.043H174.647V199.621H171.918ZM171.918 202.198V199.621H174.647V202.22L171.918 202.198ZM171.918 204.776V202.22H174.647V204.798L171.918 204.776ZM174.647 202.22V199.642H177.439V202.22H174.647ZM174.647 204.798V202.22H177.439V204.798H174.647ZM174.647 207.376V204.798H177.439V207.376H174.647ZM177.406 204.798V202.22H180.196V204.798H177.406ZM177.406 207.376V204.798H180.196V207.376H177.406ZM177.406 209.953L177.406 207.376H180.196L180.196 209.953H177.406ZM205.531 199.621V197.043H202.772V199.621H205.531ZM191.735 207.353V204.776H188.969V207.353H191.735ZM202.772 197.044L202.772 194.466H200.013L200.013 197.044H202.772ZM202.772 199.621V197.044H200.013V199.621L202.772 199.621ZM202.772 202.199V199.621H200.013V202.22L202.772 202.199ZM200.013 199.621L200.013 197.043H197.253V199.621H200.013ZM200.013 202.198L200.013 199.621H197.253V202.22L200.013 202.198ZM200.013 204.776V202.22H197.253V204.798L200.013 204.776ZM197.253 202.22V199.642H194.464V202.22H197.253ZM197.253 204.798V202.22H194.464V204.798H197.253ZM197.253 207.376V204.798H194.464V207.376H197.253ZM194.464 204.777V202.221H191.705V204.798L194.464 204.777ZM194.464 207.354V204.777H191.705V207.354H194.464ZM163.641 212.965H160.928V211.676H163.672L163.641 212.965ZM166.4 212.965H163.672L163.672 211.676H166.431L166.4 212.965ZM169.16 212.965H166.4V211.676H169.19L169.16 212.965ZM187.3 212.965H184.556V211.676H181.811V212.965H184.556V211.676H187.33L187.3 212.965ZM190.059 212.965H187.3V211.676H190.089L190.059 212.965ZM210.959 212.965H208.2V211.676H205.441V212.965H202.682V211.676H205.47V212.965H208.229V211.676H210.988L210.959 212.965ZM194.466 209.932L194.466 207.354H191.705L191.705 209.932H194.466ZM112.498 122.26H109.739V119.682H112.498V122.26ZM112.498 132.57H109.739V129.993H112.498V132.57ZM115.257 129.993H112.498V127.415H115.257V129.993ZM112.498 129.993H109.739V127.415H112.498V129.993ZM109.739 129.993H106.98V127.415H109.739V129.993ZM118.016 127.415H115.257L115.257 124.837H118.016V127.415ZM115.257 127.415H112.498L112.497 124.837H115.257L115.257 127.415ZM112.498 127.415H109.738V124.837H112.497L112.498 127.415ZM115.257 124.837H112.497L112.498 122.26H115.257V124.837ZM112.497 124.837H109.738V122.26H112.498L112.497 124.837ZM109.738 124.837H106.98V122.26H109.739L109.738 124.837ZM73.458 129.993H76.2172V132.57H73.458V129.993ZM73.458 119.682H76.2172V122.26H73.458V119.682ZM70.6987 122.26H73.458V124.838H70.6987V122.26ZM73.458 122.26H76.2172V124.838H73.458V122.26ZM76.2172 122.26L78.9765 122.26V124.838H76.2172V122.26ZM67.94 124.838H70.6993V127.416H67.94V124.838ZM70.6993 124.838H73.4585V127.416H70.6993V124.838ZM73.4585 124.838H76.2177V127.416H73.4585V124.838ZM70.6993 127.416H73.4585V129.993H70.6993V127.416ZM73.4585 127.416H76.2177V129.993H73.4585V127.416ZM76.2177 127.416H78.977V129.993H76.2177V127.416ZM97.1179 144.362V141.785H99.8761V144.362H97.1179ZM86.0815 144.362V141.785H88.8407V144.362H86.0815ZM88.8407 146.94V144.362H91.5688V146.94H88.8407ZM88.8407 144.362V141.785H91.5688V144.362H88.8407ZM88.8407 141.785V139.207H91.5688V141.785H88.8407ZM91.5693 149.532V146.954H94.3286V149.532H91.5693ZM91.5693 146.954V144.374H94.3286V146.951L91.5693 146.954ZM91.5693 144.376V141.799H94.3286V144.376H91.5693ZM94.3286 146.954V144.374H97.0878V146.951L94.3286 146.954ZM94.3286 144.376V141.799H97.0878V144.376H94.3286ZM94.3286 141.799V139.207H97.0878V141.784L94.3286 141.799ZM88.8101 107.905V110.483H86.0509V107.905H88.8101ZM99.8465 107.905V110.483H97.0873V107.905H99.8465ZM97.0873 105.328V107.905H94.328V105.313L97.0873 105.328ZM97.0873 107.905V110.483H94.328V107.905H97.0873ZM97.0873 110.483V113.061H94.328V110.483H97.0873ZM94.328 102.75V105.328H91.5688V102.75H94.328ZM94.328 105.328V107.906H91.5688V105.314L94.328 105.328ZM94.328 107.906V110.483L91.5688 110.483V107.906H94.328ZM91.5688 105.314V107.891H88.8096V105.314H91.5688ZM91.5688 107.891V110.469H88.8096V107.891H91.5688ZM91.5688 110.469V113.047H88.8096V110.466L91.5688 110.469ZM94.328 122.261V124.838H91.5688V122.26L94.328 122.261ZM94.328 124.838V127.416H91.5688V124.838H94.328ZM94.328 127.416V129.994H91.5688V127.416H94.328ZM97.0873 124.838V127.416H94.328V124.838H97.0873ZM91.5688 124.838V127.416H88.8096V124.838H91.5688ZM73.3983 139.478V142.055H76.1576V139.478H73.3983ZM87.2262 131.731V134.308H89.9855V131.727L87.2262 131.731ZM76.1898 142.041V144.619H78.949V142.055L76.1898 142.041ZM76.1898 139.463V142.041H78.949V139.463H76.1898ZM76.1898 136.886V139.463H78.949V136.886H76.1898ZM78.949 139.463V142.041H81.7083V139.463H78.949ZM78.949 136.886V139.463H81.7083V136.886H78.949ZM78.949 134.308V136.886H81.7083V134.306L78.949 134.308ZM81.7083 136.886V139.463H84.4649V136.886H81.7083ZM81.7083 134.308V136.886H84.4649V134.306L81.7083 134.308ZM81.7083 131.73V134.308H84.4649V131.727L81.7083 131.73ZM84.4675 134.308V136.886H87.2267V134.306L84.4675 134.308ZM84.4675 131.73V134.308H87.2267V131.727L84.4675 131.73ZM84.4675 129.153V131.727H87.2267V129.163L84.4675 129.153ZM112.562 139.463V142.041H109.803V139.463H112.562ZM98.7635 131.727V134.305H95.9969V131.727H98.7635ZM109.8 142.037V144.615H107.041V142.051L109.8 142.037ZM109.8 139.459V142.037H107.041V139.459H109.8ZM109.8 136.882V139.459H107.041V136.882H109.8ZM107.041 139.459V142.037H104.281V139.459H107.041ZM107.041 136.882V139.459H104.281V136.882H107.041ZM107.041 134.304V136.882H104.281V134.306L107.041 134.304ZM104.281 136.882V139.459H101.522V136.882H104.281ZM104.281 134.304V136.882H101.522V134.306L104.281 134.304ZM104.281 131.726V134.304H101.522V131.727L104.281 131.726ZM101.522 134.304V136.882H98.763V134.306L101.522 134.304ZM101.522 131.726V134.304H98.763V131.727L101.522 131.726ZM101.522 129.149V131.727H98.763V129.163L101.522 129.149ZM73.4279 112.772V110.194H76.1871V112.772H73.4279ZM87.2236 120.504V117.927H89.9855V120.504H87.2236ZM76.1871 110.194V107.616L78.9464 107.616V110.194L76.1871 110.194ZM76.1871 112.772V110.194L78.9464 110.194V112.772L76.1871 112.772ZM76.1871 115.349V112.772L78.9464 112.772V115.349L76.1871 115.349ZM78.9464 112.772V110.194H81.7056V112.772H78.9464ZM78.9464 115.349V112.772H81.7056V115.349H78.9464ZM78.9464 117.927V115.349H81.7056V117.927H78.9464ZM81.7056 115.349V112.772H84.4649V115.349H81.7056ZM81.7056 117.927V115.349H84.4649V117.927H81.7056ZM81.7056 120.505V117.927H84.4649V120.505H81.7056ZM84.4649 117.927V115.349H87.2241V117.927H84.4649ZM84.4649 120.505V117.927H87.2241V120.505H84.4649ZM84.4649 123.083V120.505H87.2241V123.083H84.4649ZM112.559 112.772V110.195H109.8V112.772H112.559ZM98.7635 120.505V117.927H95.9969V120.505H98.7635ZM109.8 110.195V107.616H107.041V110.194L109.8 110.195ZM109.8 112.772V110.195L107.041 110.194V112.772H109.8ZM109.8 115.35V112.772H107.041V115.35H109.8ZM107.041 112.772V110.194L104.281 110.195V112.772H107.041ZM107.041 115.35V112.772H104.281V115.35H107.041ZM107.041 117.928V115.35H104.281V117.928H107.041ZM104.281 115.35V112.772H101.522V115.35H104.281ZM104.281 117.928V115.35H101.522V117.928H104.281ZM104.281 120.505L104.281 117.928H101.522L101.522 120.505H104.281ZM101.522 117.928V115.35H98.763V117.928H101.522ZM101.522 120.505L101.522 117.928H98.763V120.505H101.522ZM101.522 123.083V120.505H98.763V123.083H101.522ZM27.8033 142.023V139.232H24.8155V142.023H27.8033ZM12.8565 150.397V147.606H9.86819V150.397H12.8565ZM24.8155 139.232V136.441H21.8277V139.232H24.8155ZM24.8155 142.023V139.232H21.8277V142.023H24.8155ZM24.8155 144.815V142.023H21.8277V144.815H24.8155ZM21.8277 142.023V139.232H18.8405V142.023H21.8277ZM21.8277 144.815V142.023H18.8405V144.815H21.8277ZM21.8277 147.606V144.815H18.8405V147.606H21.8277ZM18.84 144.815V142.023H15.8522V144.815H18.84ZM18.84 147.606V144.815H15.8522V147.606H18.84ZM18.84 150.397V147.606H15.8522V150.397H18.84ZM15.8522 147.606V144.815H12.857V147.606H15.8522ZM15.8522 150.397V147.606H12.857V150.397H15.8522ZM15.8522 153.188V150.397H12.857V153.188H15.8522ZM27.8033 110.224V113.015H24.8155V110.224H27.8033ZM12.8565 101.821V104.67H9.86819V101.821H12.8565ZM24.8155 112.986V115.777H21.8277V112.986H24.8155ZM24.8155 110.195V112.986H21.8277V110.225L24.8155 110.195ZM24.8155 107.404V110.195H21.8277V107.404L24.8155 107.404ZM21.8277 110.195V112.986H18.8405V110.225L21.8277 110.195ZM21.8277 107.404V110.195H18.8405V107.404L21.8277 107.404ZM21.8277 104.613V107.404H18.8405V104.67L21.8277 104.613ZM18.84 107.404V110.195H15.8522V107.404L18.84 107.404ZM18.84 104.613V107.404H15.8522V104.67L18.84 104.613ZM18.84 101.821V104.67H15.8522V101.821H18.84ZM15.8522 104.613V107.404H12.857V104.67L15.8522 104.613ZM15.8522 101.821V104.67H12.857V101.821H15.8522ZM15.8522 99.0234V101.821H12.857V99.0234H15.8522ZM1.5155 112.965L14.0904 124.714L15.5767 126.095L14.0904 127.519L1.5155 139.271L0.0377197 140.651V135.11L9.64915 126.131L0.0377197 117.152V111.613L1.5155 112.965ZM38.9775 126.124L34.3356 121.759L29.6785 126.109L34.3356 130.46L38.9775 126.124ZM0.0218964 84.1918L1.49968 85.5723L9.12137 92.6925L10.6076 94.081L9.12137 95.4615L2.98592 101.201L26.6976 123.352L32.8795 117.622L34.3573 116.234L35.8815 117.622L43.5032 124.743L44.981 126.123L43.5032 127.547L35.8815 134.667L34.3573 136.048L32.8795 134.631L26.7134 128.877L3.00174 151.029L9.13721 156.768L10.6234 158.157L9.13721 159.537L1.5155 166.657L0.0377197 168.046V162.509L4.67955 158.173L0.0377197 153.801V148.269L23.7351 126.124L0.0377197 103.958V98.4184L4.67955 94.082L0.0377197 89.7169L0.0218964 84.1918ZM22.7656 185.188L22.7656 161.634L4.95981 178.267L12.3377 185.159L22.7656 185.188ZM61.927 185.188H63.2465L63.2465 153.908L29.7561 153.908L29.7561 185.188L61.927 185.188ZM37.1329 208.351L54.983 191.718H29.8305V201.458L37.1329 208.351ZM131.025 191.718L148.838 208.351L156.216 201.458V191.718H131.025ZM122.726 183.956V185.189H156.217V153.908H122.726V183.956ZM122.726 137.631V147.393H147.879L130.074 130.753L122.726 137.631ZM105.287 153.908L97.9096 160.794L115.714 177.433V153.937L105.287 153.908ZM80.6532 153.908H70.2264V177.406L88.039 160.765L80.6532 153.908ZM63.2364 137.631L55.8586 130.738L38.0692 147.393L63.2607 147.393L63.2364 137.631ZM63.2364 114.617V104.877H38.0459L55.8586 121.51L63.2364 114.617ZM80.6532 98.3464L88.0327 91.455L70.228 74.8217V98.3193L80.6532 98.3464ZM105.287 98.3464H115.738V74.8498L97.9328 91.4831L105.287 98.3464ZM122.726 114.638L130.104 121.53L147.91 104.898L122.757 104.898L122.726 114.638ZM0.0139618 182.931L0.0139618 173.675L50.9449 126.124L0.0382538 78.567V69.3103L31.0898 98.3188H63.2607V59.0996L92.9859 86.869L122.712 59.0996V98.3829L164.739 98.3829L135.014 126.152L164.739 153.922H163.215V185.202H173.634L181.011 178.31C186.025 173.626 185.882 173.632 185.95 173.696C186.019 173.76 186.026 173.625 190.889 178.31L198.275 185.188H215.684L215.684 201.459L228 212.965H218.092L208.694 204.164L208.694 191.718H195.371L185.95 182.91L176.529 191.718H163.214V204.164L153.793 212.965H143.884L92.9938 165.408L42.0872 212.965H32.1786L22.7503 204.164V191.718H9.42697L0.0139618 182.931ZM0.0139618 192.187V189.612H1.3936V192.189L0.0139618 192.187ZM0.0139618 194.765V192.187H1.3936V194.765H0.0139618ZM0.0139618 197.343V194.765H1.3936V197.343H0.0139618ZM0.0139618 211.712V209.134H1.3936V211.712H0.0139618ZM0.0139618 213.001V211.712H1.3936V213.001H0.0139618ZM125.143 126.131L115.714 117.33V104.877H102.391L92.9701 96.069L83.5492 104.877L70.2258 104.877V117.324L60.8049 126.125L70.2258 134.933V147.393H83.5729L92.9938 156.194L102.415 147.393H115.738V134.932L125.143 126.131Z" fill="white"/>
<path d="M125.56 166.075V168.395H128.319V166.075H125.56ZM125.56 168.394V170.713H128.319V168.395L125.56 168.394ZM131.082 170.713V173.032H133.842V170.713H131.082ZM128.321 170.713V173.032H131.082V170.713H128.321ZM125.56 170.713V173.032H128.319V170.713H125.56ZM128.319 168.395V170.714H131.079V168.395H128.319ZM131.079 166.076V168.395H133.842V166.075L131.079 166.076ZM153.547 156.128V153.809H150.786V156.128H153.547ZM153.547 153.809V151.49H150.786V153.809H153.547ZM148.054 151.49V149.171H145.294V151.49H148.054ZM150.815 151.49V149.171H148.054V151.49H150.815ZM153.576 151.49V149.171H150.815V151.49H153.576ZM150.815 153.809V151.49H148.054V153.809H150.815ZM148.054 156.128V153.809H145.294V156.128H148.054ZM125.587 156.128V153.809H128.348V156.128H125.587ZM125.587 153.809V151.49H128.348V153.809H125.587ZM131.109 151.49V149.171H133.87V151.49H131.109ZM128.348 151.49V149.171H131.112V151.49H128.348ZM125.587 151.49V149.171H128.348V151.49H125.587ZM128.348 153.809V151.49H131.112V153.809H128.348ZM131.109 156.128V153.809H133.87V156.128H131.109ZM153.546 166.076V168.395H150.785V166.075L153.546 166.076ZM153.546 168.395V170.714H150.785V168.395H153.546ZM148.024 170.714V173.033H145.263V170.714H148.024ZM150.785 170.714V173.033H148.055V170.714H150.785ZM153.546 170.714V173.033H150.785V170.714H153.546ZM150.785 168.395V170.714H148.055V168.395H150.785ZM148.055 166.076V168.395H145.294V166.075L148.055 166.076ZM32.5763 166.076V168.395H35.3372V166.075L32.5763 166.076ZM32.5763 168.395V170.714H35.3372V168.395H32.5763ZM38.098 170.714V173.033H40.8283V170.714H38.098ZM35.3372 170.714V173.033H38.098V170.714H35.3372ZM32.5763 170.714V173.033H35.3372V170.714H32.5763ZM35.3372 168.395V170.714H38.098V168.395H35.3372ZM38.098 166.076V168.395H40.8283V166.075L38.098 166.076ZM60.5651 156.128V153.809H57.8043V156.128H60.5651ZM60.5651 153.809V151.49H57.8043V153.809H60.5651ZM55.0133 151.49V149.171H52.2524V151.49H55.0133ZM57.7816 151.49V149.171H55.0133V151.49H57.7816ZM60.5424 151.49V149.171H57.7816V151.49H60.5424ZM57.7816 153.809V151.49H55.0133V153.809H57.7816ZM55.0133 156.128V153.809H52.2524V156.128H55.0133ZM32.5536 156.128V153.809H35.3145V156.128H32.5536ZM32.5536 153.809V151.49H35.3145V153.809H32.5536ZM38.0753 151.49V149.171H40.8283V151.49H38.0753ZM35.3145 151.49V149.171H38.0753V151.49H35.3145ZM32.5536 151.49V149.171H35.3145V151.49H32.5536ZM35.3145 153.809V151.49H38.0753V153.809H35.3145ZM38.0753 156.128V153.809H40.8283V156.128H38.0753ZM60.5424 166.076V168.395H57.7816V166.075L60.5424 166.076ZM60.5424 168.395V170.714H57.7816V168.395H60.5424ZM55.0133 170.714V173.033H52.2524V170.714H55.0133ZM57.7816 170.714V173.033H55.0133V170.714H57.7816ZM60.5424 170.714V173.033H57.7816V170.714H60.5424ZM57.7816 168.395V170.714H55.0133V168.395H57.7816ZM55.0133 166.076V168.395H52.2524V166.075L55.0133 166.076ZM65.271 185.86V188.371H68.2605V185.86H65.271ZM80.1832 178.323V180.834H83.234V178.323H80.1832ZM68.2251 188.374V190.884H71.2146V188.373L68.2251 188.374ZM68.2251 185.863V188.374H71.2146V185.863H68.2251ZM68.2251 183.352V185.863H71.2146V183.352H68.2251ZM71.2146 185.863V188.374H74.2348V185.863H71.2146ZM71.2146 183.352V185.863H74.2348V183.352H71.2146ZM71.2146 180.835V183.352H74.2348V180.835H71.2146ZM74.2041 183.352V185.863H77.1936V183.352H74.2041ZM74.2041 180.835V183.352H77.1936V180.835H74.2041ZM74.2041 178.324V180.835H77.1936V178.324H74.2041ZM77.1936 180.835V183.352H80.1832V180.835H77.1936ZM77.1936 178.324V180.835H80.1832V178.324H77.1936ZM77.1936 175.813V178.324H80.1832V175.813H77.1936ZM120.801 185.864V188.375H117.81V185.864H120.801ZM105.876 178.323V180.84H102.887V178.323H105.876ZM117.842 188.374V190.884H114.852V188.373L117.842 188.374ZM117.842 185.863V188.374H114.852V185.863H117.842ZM117.842 183.352V185.863H114.852V183.352H117.842ZM114.853 185.863V188.374H111.863V185.863H114.853ZM114.853 183.352V185.863H111.863V183.352H114.853ZM114.853 180.84V183.352H111.863V180.84H114.853ZM111.863 183.352V185.863H108.874V183.352H111.863ZM111.863 180.84V183.352H108.874V180.84H111.863ZM111.863 178.323V180.84H108.874V178.323H111.863ZM108.874 180.84V183.352H105.875V180.84H108.874ZM108.874 178.323V180.84H105.875V178.323H108.874ZM108.874 175.812V178.323H105.875V175.812H108.874ZM69.3156 200.155H63.4052L58.7226 196.26L54.0627 200.175H48.1545L58.7247 191.264L66.3509 197.67L90.0997 177.741L82.4735 171.336L93.0512 162.438V167.434L88.3913 171.348L93.0512 175.263V180.246L69.3177 200.175L69.3156 200.155ZM83.432 200.155H77.4989L93.049 187.1V192.082L83.4309 200.161L83.432 200.155ZM108.599 200.155H102.666L93.049 192.077V187.099L108.599 200.161V200.155ZM93.049 162.437L103.642 171.335L96.0159 177.741L119.741 197.669L127.368 191.263L137.961 200.161H132.043L127.368 196.26L122.708 200.174H116.789L93.0485 180.245V175.248L97.7237 171.334L93.0485 167.433L93.049 162.437ZM19.5689 196.681H16.8081V194.337H19.5689V196.681ZM22.3308 199.002H19.57V196.683H22.3308V199.002ZM19.57 199.002H16.8091V196.683H19.5689L19.57 199.002ZM16.8091 199.002H14.0483V196.683H16.8091V199.002ZM6.97131 183.756V186.075H4.21045V183.756H6.97131ZM4.21045 181.437V183.756H1.4496V181.436L4.21045 181.437ZM4.21045 183.756V186.075H1.4496V183.756H4.21045ZM4.21045 186.075V188.394H1.4496V186.075H4.21045ZM19.6613 188.156V185.837H16.8852V188.156H19.6613ZM5.8544 195.113V192.794H3.08615V195.113H5.8544ZM16.882 185.837V183.518H14.1211V185.837H16.882ZM16.882 188.156V185.837H14.1211V188.156H16.882ZM16.882 190.475V188.156H14.1211V190.494L16.882 190.475ZM14.1211 188.156V185.837H11.3603V188.156H14.1211ZM14.1211 190.475V188.156H11.3603V190.494L14.1211 190.475ZM14.1211 192.794V190.495H11.3603V192.814L14.1211 192.794ZM11.345 190.495V188.176H8.58411V190.495H11.345ZM11.345 192.814V190.495H8.58411V192.814H11.345ZM11.345 195.133V192.814H8.58411V195.133H11.345ZM8.58411 192.814V190.495H5.82326V192.814H8.58411ZM8.58411 195.133V192.814H5.82326V195.133H8.58411ZM4.17613 200.181H1.41844V199.021H4.17931L4.17613 200.181ZM25.0885 200.181H22.3308V199.021H19.57V200.181H16.8091V199.021H19.5689V200.181H22.3308V199.021H25.0917L25.0885 200.181ZM8.58675 197.449V195.13H5.8259V197.449H8.58675ZM205.591 196.681H202.832V194.336H205.591V196.681ZM208.352 199H205.591V196.681H208.352V199ZM205.591 199H202.832V196.681H205.591V199ZM202.83 199H200.069V196.681H202.832L202.83 199ZM166.529 194.336H169.29V196.655H166.529V194.336ZM163.768 196.655H166.529V198.974H163.768V196.655ZM166.529 196.655H169.29V198.974H166.529V196.655ZM169.29 196.655H172.05V198.974H169.29V196.655ZM181.92 183.755V186.074H179.159V183.755H181.92ZM192.963 183.755V186.074H190.202V183.755H192.963ZM190.201 181.436L190.202 183.755H187.441V181.436H190.201ZM190.202 183.755V186.074H187.441V183.755H190.202ZM190.202 186.074L190.201 188.393H187.441V186.074H190.202ZM187.441 179.118V181.436H184.666V179.117L187.441 179.118ZM187.441 181.436V183.755L184.666 183.756V181.436H187.441ZM187.441 183.755V186.075H184.666V183.756L187.441 183.755ZM184.666 181.436V183.756L181.92 183.755V181.436H184.666ZM184.666 183.756V186.074H181.92V183.755L184.666 183.756ZM184.666 186.074V188.393H181.92V186.074H184.666ZM187.427 196.682V199.002H184.666V196.683L187.427 196.682ZM166.5 188.156V185.837H169.26V188.156H166.5ZM180.303 195.112V192.793H183.063V195.112H180.303ZM169.26 185.837V183.518H172.02V185.837H169.26ZM169.26 188.156V185.837H172.02V188.156H169.26ZM169.26 190.475V188.156H172.02V190.494L169.26 190.475ZM172.021 188.156V185.837H174.752V188.156H172.021ZM172.021 190.475V188.156H174.752V190.494L172.021 190.475ZM172.021 192.794V190.494H174.752V192.813L172.021 192.794ZM174.752 190.494V188.175H177.541V190.494H174.752ZM174.752 192.813V190.494H177.541V192.813H174.752ZM174.752 195.132V192.813H177.541V195.132H174.752ZM177.512 192.813V190.494H180.302V192.813H177.512ZM177.512 195.132V192.813H180.302V195.132H177.512ZM177.512 197.451V195.132H180.302V197.449L177.512 197.451ZM205.652 188.156V185.837H202.891V188.156H205.652ZM191.848 195.113V192.794H189.08V195.113H191.848ZM202.891 185.837V183.518H200.131V185.837H202.891ZM202.891 188.156V185.837H200.131V188.156H202.891ZM202.891 190.475V188.156H200.131V190.494L202.891 190.475ZM200.131 188.156V185.837H197.37V188.156H200.131ZM200.131 190.475V188.156H197.37V190.494L200.131 190.475ZM200.131 192.794V190.495H197.37V192.814L200.131 192.794ZM197.37 190.495V188.176H194.578V190.495H197.37ZM197.37 192.814V190.495H194.578V192.814H197.37ZM197.37 195.133V192.814H194.578V195.133H197.37ZM194.578 192.795V190.495L191.817 190.495V192.814L194.578 192.795ZM194.578 195.114V192.795H191.817V195.114H194.578ZM163.738 200.162H161.023V199.002H163.769L163.738 200.162ZM166.499 200.162H163.768L163.769 199.002H166.529L166.499 200.162ZM169.259 200.162H166.5V199.002H169.291L169.259 200.162ZM187.41 200.162H184.664V199.002H181.918V200.161H184.666V199.002H187.441L187.41 200.162ZM190.171 200.162H187.412V199.002H190.201L190.171 200.162ZM211.084 200.162H208.323V199.002H205.562V200.161H202.801V199.002H205.591V200.161H208.352V199.002H211.113L211.084 200.162ZM194.58 197.433V195.114H191.819V197.433H194.58ZM112.568 118.558H109.807V116.239H112.568V118.558ZM112.568 127.833H109.807V125.514H112.568V127.833ZM115.329 125.514H112.568V123.195H115.328L115.329 125.514ZM112.568 125.514H109.807V123.195H112.568V125.514ZM109.807 125.514H107.046V123.195H109.804L109.807 125.514ZM118.086 123.195H115.328V120.876H118.088L118.086 123.195ZM115.325 123.195H112.565V120.876H115.328L115.325 123.195ZM112.565 123.195H109.804V120.876H112.565V123.195ZM115.325 120.876H112.565V118.557H115.328L115.325 120.876ZM112.565 120.876H109.804V118.557H112.565V120.876ZM109.804 120.876H107.043V118.557H109.804V120.876ZM73.5028 125.513H76.2637V127.832H73.5028V125.513ZM73.5028 116.238H76.2637V118.557H73.5028V116.238ZM70.742 118.557H73.5028V120.876H70.742V118.557ZM73.5028 118.557H76.2637V120.876H73.5028V118.557ZM76.2637 118.557H79.0245V120.876H76.2637V118.557ZM67.9816 120.876H70.742L70.7425 123.195H67.9816V120.876ZM70.742 120.876H73.5028V123.195H70.7425L70.742 120.876ZM73.5034 120.876H76.2642V123.195H73.5028L73.5034 120.876ZM70.7425 123.195H73.5028V125.514H70.742L70.7425 123.195ZM73.5034 123.195H76.2642V125.514H73.5028L73.5034 123.195ZM76.2642 123.195H79.0251V125.514H76.2642V123.195ZM97.1766 138.441V136.122H99.9375V138.441H97.1766ZM86.1337 138.441V136.122H88.8946V138.441H86.1337ZM88.8946 140.76V138.441L91.6248 138.441V140.76L88.8946 140.76ZM88.8946 138.441V136.122H91.6248V138.441L88.8946 138.441ZM88.8946 136.122V133.803H91.6248V136.122H88.8946ZM91.6248 143.091V140.772H94.3835V143.091H91.6248ZM91.6248 140.772V138.454H94.3835V140.773L91.6248 140.772ZM91.6248 138.453V136.134H94.3835V138.454L91.6248 138.453ZM94.3856 140.772V138.454H97.1465V140.773L94.3856 140.772ZM94.3856 138.453V136.134H97.1465V138.454L94.3856 138.453ZM94.3856 136.134V133.803H97.1465V136.122L94.3856 136.134ZM88.8618 105.643V107.962H86.101V105.643H88.8618ZM99.9047 105.643V107.962H97.1439V105.643H99.9047ZM97.1439 103.324V105.643H94.383V103.311L97.1439 103.324ZM97.1439 105.643V107.962H94.383V105.643H97.1439ZM97.1439 107.962V110.281H94.383V107.962H97.1439ZM94.383 101.005V103.323H91.6221V101.004L94.383 101.005ZM94.383 103.324V105.643L91.6221 105.643V103.311L94.383 103.324ZM94.383 105.643V107.962H91.6221V105.643L94.383 105.643ZM91.6221 103.311V105.629H88.8613V103.31L91.6221 103.311ZM91.6221 105.63V107.949H88.8613V105.629L91.6221 105.63ZM91.6221 107.949V110.268H88.8613V107.949H91.6221ZM94.383 118.557V120.876H91.6221V118.557H94.383ZM94.383 120.876V123.195H91.6221V120.876L94.383 120.876ZM94.383 123.195V125.514H91.6221V123.195L94.383 123.195ZM97.1439 120.876V123.195H94.383V120.876L97.1439 120.876ZM91.6221 120.876V123.195H88.8613V120.876L91.6221 120.876ZM73.441 134.047V136.366H76.2019V134.047H73.441ZM87.277 127.077V129.397H90.0379V127.077H87.277ZM76.2341 136.353V138.672H78.995V136.365L76.2341 136.353ZM76.2341 134.034V136.353H78.995V134.034H76.2341ZM76.2341 131.715V134.034H78.995V131.715H76.2341ZM78.995 134.034V136.353H81.7558V134.034H78.995ZM78.995 131.715V134.034H81.7558V131.715H78.995ZM78.995 129.396V131.715H81.7558V129.396H78.995ZM81.7558 131.715V134.034H84.5167V131.715H81.7558ZM81.7558 129.396V131.715H84.5167V129.396H81.7558ZM81.7558 127.077V129.396H84.5167V127.077H81.7558ZM84.5167 129.396V131.715H87.2775V129.396H84.5167ZM84.5167 127.077V129.396H87.2775V127.077H84.5167ZM84.5167 124.758V127.077H87.2775V124.77L84.5167 124.758ZM112.627 134.034V136.353H109.867V134.034H112.627ZM98.8237 127.077V129.396H96.0523V127.077H98.8237ZM109.867 136.353V138.672H107.106V136.365L109.867 136.353ZM109.867 134.034V136.353H107.106V134.034H109.867ZM109.867 131.715V134.034H107.106V131.715H109.867ZM107.106 134.034V136.353H104.343V134.034H107.106ZM107.106 131.715V134.034H104.343V131.715H107.106ZM107.106 129.396V131.715H104.343V129.396H107.106ZM104.345 131.715V134.034H101.584V131.715H104.345ZM104.345 129.396V131.715H101.584V129.396H104.345ZM104.345 127.077V129.396H101.584V127.077H104.345ZM101.584 129.396V131.715H98.8232V129.396H101.584ZM101.584 127.077V129.396H98.8232V127.077H101.584ZM101.584 124.758V127.077H98.8232V124.77L101.584 124.758ZM73.4733 110.024V107.705H76.2341V110.024H73.4733ZM87.277 116.981V114.662H90.0379V116.981H87.277ZM76.2325 107.705V105.386H78.995V107.705H76.2325ZM76.2325 110.024V107.705H78.995V110.024H76.2325ZM76.2325 112.343V110.024H78.995V112.343H76.2325ZM78.9934 110.024V107.705H81.7542V110.024H78.9934ZM78.9934 112.343V110.024H81.7542V112.343H78.9934ZM78.9934 114.662V112.343H81.7542V114.662H78.9934ZM81.7542 112.343V110.024H84.5151V112.343H81.7542ZM81.7542 114.662V112.343H84.5151V114.662H81.7542ZM81.7542 116.981V114.662H84.5151V116.981H81.7542ZM84.5151 114.662V112.343H87.276V114.662H84.5151ZM84.5151 116.981V114.662H87.276V116.981H84.5151ZM84.5151 119.3V116.981H87.276V119.3H84.5151ZM112.626 110.025V107.705H109.865V110.024L112.626 110.025ZM98.8221 116.981V114.662H96.0523V116.981H98.8221ZM109.865 107.705V105.386H107.104V107.705H109.865ZM109.865 110.024V107.705H107.104V110.024H109.865ZM109.865 112.343V110.024H107.104V112.343H109.865ZM107.104 110.024V107.705H104.343V110.024H107.104ZM107.104 112.343V110.024H104.343V112.343H107.104ZM107.104 114.662V112.343H104.343V114.662H107.104ZM104.343 112.343V110.024H101.582V112.343H104.343ZM104.343 114.662V112.343H101.582V114.662H104.343ZM104.343 116.981V114.662H101.582V116.981H104.343ZM101.582 114.662V112.343H98.8216L98.8221 114.662H101.582ZM101.582 116.981V114.662H98.8221V116.981H101.582ZM101.582 119.3V116.981H98.8221L98.8216 119.3H101.582ZM27.823 136.339V133.828H24.8335V136.339H27.823ZM12.8674 143.873V141.361H9.87793V143.873H12.8674ZM24.8335 133.828V131.317H21.8439V133.828H24.8335ZM24.8335 136.339V133.828H21.8439V136.339H24.8335ZM24.8335 138.85V136.339H21.8439V138.85H24.8335ZM21.8439 136.339V133.828H18.8544V136.339H21.8439ZM21.8439 138.85V136.339H18.8544V138.85H21.8439ZM21.8439 141.361V138.85H18.8544V141.361H21.8439ZM18.8544 138.85V136.339H15.8649V138.85H18.8544ZM18.8544 141.361V138.85H15.8649V141.361H18.8544ZM18.8544 143.873V141.361H15.8649V143.873H18.8544ZM15.8649 141.361V138.85H12.868V141.361H15.8649ZM15.8649 143.873V141.361H12.868V143.873H15.8649ZM15.8649 146.384V143.873H12.868V146.384H15.8649ZM27.823 107.731V110.243H24.8335V107.731L27.823 107.731ZM12.8653 100.173V102.736H9.87581V100.173H12.8653ZM24.8313 110.218V112.727H21.8418V110.215L24.8313 110.218ZM24.8313 107.707V110.218H21.8418V107.734L24.8313 107.707ZM24.8313 105.196V107.707H21.8418V105.196H24.8313ZM21.8418 107.707V110.218H18.8523V107.734L21.8418 107.707ZM21.8418 105.196V107.707H18.8523V105.196H21.8418ZM21.8418 102.684V105.196H18.8523V102.736L21.8418 102.684ZM18.8523 105.196V107.707H15.8628V105.196H18.8523ZM18.8523 102.684V105.196H15.8628V102.736L18.8523 102.684ZM18.8523 100.173V102.736H15.8628V100.173H18.8523ZM15.8628 102.684V105.196H12.8659V102.736L15.8628 102.684ZM15.8628 100.173V102.736H12.8659V100.173H15.8628ZM15.8628 97.6561V100.173H12.8659V97.6561H15.8628ZM1.5172 110.198L15.5876 122.011L0.0374756 135.072V130.087L9.65666 122.01L0.0396118 113.932V108.948L1.5172 110.198ZM39.0005 122.036L34.356 118.109L29.6961 122.023L34.356 125.938L39.0005 122.036ZM0.022171 84.3125L10.6157 93.2093L2.98952 99.6149L26.714 119.543L34.3401 113.138L44.9331 122.035L34.3555 130.92L26.7298 124.514L3.00272 144.442L10.6289 150.848L0.0374756 159.745V154.762L4.68204 150.868L0.0374756 146.935V141.958L23.7488 122.036L0.0374756 102.095V97.1101L4.68204 93.2093L0.0374756 89.2823L0.022171 84.3125ZM137.541 102.588L137.091 102.921C137.228 102.825 137.365 102.735 137.495 102.639L137.541 102.588ZM205.256 180.7L204.806 181.046C204.963 180.937 205.113 180.822 205.256 180.7ZM158.079 173.013L158.438 172.865C158.338 172.91 158.24 172.954 158.14 173.007L158.079 173.013ZM122.784 158.632V158.689V158.632ZM122.784 152.52L122.068 153.257C122.34 153.037 122.585 152.795 122.8 152.533L122.784 152.52ZM0 181.424V179.105H1.38043V181.424H0ZM0 183.743V181.424H1.38043V183.743H0ZM0 186.062V183.743H1.38043V186.062H0ZM0 198.989V196.67H1.38043V198.989H0ZM0 200.148V198.988H1.38043V200.148L0 200.148ZM61.2395 97.0138H62.132V97.1469C61.9076 97.1147 61.6809 97.0954 61.4534 97.0892C61.3931 97.0803 61.3342 97.0654 61.278 97.0449L61.2395 97.0138Z" fill="white"/>
<path d="M40.5946 95.7698H37.8369V93.1921H40.5962L40.5946 95.7698ZM37.8353 95.7698H35.0761V93.1921H37.8369L37.8353 95.7698ZM35.0761 90.6144H32.3169L32.3169 88.0367H35.0761L35.0761 90.6144ZM35.0761 93.1921H32.3169V90.6144H35.0761V93.1921ZM35.0761 95.7698H32.3169V93.1921H35.0761V95.7698ZM37.8353 93.1921H35.0761V90.6144H37.8369L37.8353 93.1921ZM40.5946 90.6144H37.8369L37.8369 88.0367H40.5962L40.5946 90.6144ZM52.4312 69.6378H55.1904V72.2155H52.4312V69.6378ZM55.1904 69.6378H57.9496V72.2155H55.1904V69.6378ZM57.9496 74.7932H60.7089V77.3778H57.9496L57.9496 74.7932ZM57.9496 72.2155H60.7089V74.7646H57.9496V72.2155ZM57.9496 69.6378H60.7089V72.2155H57.9496V69.6378ZM55.1904 72.2155H57.9496V74.7646H55.1904V72.2155ZM52.4312 74.7932H55.1904L55.1904 77.3778H52.4312L52.4312 74.7932ZM52.4312 95.7698H55.1904V93.1921H52.4312V95.7698ZM55.1904 95.7698H57.9496V93.1921H55.1904V95.7698ZM57.9496 90.6144H60.7089V88.0367H57.9496V90.6144ZM57.9496 93.1921H60.7089V90.6144H57.9496V93.1921ZM57.9496 95.7698H60.7089V93.1921H57.9496V95.7698ZM55.1904 93.1921H57.9496V90.6144H55.1904V93.1921ZM52.4312 90.6144H55.1904V88.0367H52.4312V90.6144ZM40.5946 69.6378H37.8369V72.2155H40.5962L40.5946 69.6378ZM37.8353 69.6378H35.0761V72.2155H37.8369L37.8353 69.6378ZM35.0761 74.7932H32.3169V77.3778H35.0761V74.7932ZM35.0761 72.2155H32.3169V74.7646H35.0761V72.2155ZM35.0761 69.6378H32.3169V72.2155H35.0761V69.6378ZM37.8353 72.2155H35.0761V74.7646H37.8369L37.8353 72.2155ZM40.5946 74.7932H37.8369V77.3778H40.5962L40.5946 74.7932ZM17.0555 100.186L14.0678 100.186V102.977L17.0582 102.977L17.0555 100.186ZM26.0188 114.149H23.0311V116.94H26.0188V114.149ZM14.0678 102.977H11.08V105.768H14.0678V102.977ZM17.0555 102.977L14.0678 102.977V105.768L17.0582 105.768L17.0555 102.977ZM20.0433 102.977H17.0555V105.768H20.0433V102.977ZM17.0555 105.768L14.0678 105.768V108.559L17.0582 108.559L17.0555 105.768ZM20.0433 105.768H17.0555V108.559H20.0433V105.768ZM23.0311 105.768H20.0433V108.559H23.0311V105.768ZM20.0433 108.559H17.0555V111.357H20.0433V108.559ZM23.0311 108.559H20.0433V111.357H23.0311V108.559ZM26.0188 108.559H23.0311V111.357H26.0188V108.559ZM23.0311 111.357H20.0433V114.148H23.0311V111.357ZM26.0188 111.357H23.0311V114.148H26.0188V111.357ZM29.0145 111.357H26.0188V114.148H29.014L29.0145 111.357ZM4.17712 21.0481V23.6258H6.96697V21.0481H4.17712ZM1.42 18.4704V21.0481H4.17924V18.4704H1.42ZM1.42 21.0481V23.6258H4.17924V21.0481H1.42ZM1.42 23.6258V26.2035H4.17924V23.6258H1.42ZM6.96857 57.519V54.9413H4.2093V57.519H6.96857ZM4.2093 60.0967V57.519H1.45007V60.0967H4.2093ZM4.2093 57.519V54.9413H1.45007V57.519H4.2093ZM4.2093 54.9413V52.3626H1.45007V54.9403L4.2093 54.9413ZM19.5583 43.1498H16.799V45.7275H19.5583V43.1498ZM19.5583 32.8395H16.799V35.4172H19.5583V32.8395ZM22.3175 35.4172H19.5583V37.9949H22.3175V35.4172ZM19.5583 35.4172H16.799V37.9949H19.5583V35.4172ZM16.799 35.4172H14.0398V37.9949H16.799V35.4172ZM25.0762 37.9949H22.317V40.5869H25.0762V37.9949ZM22.317 37.9949H19.5583L19.5577 40.5869H22.317V37.9949ZM19.5583 37.9949H16.799L16.7985 40.5869H19.5577L19.5583 37.9949ZM22.317 40.5869H19.5577V43.1508H22.317V40.5869ZM19.5577 40.5869H16.7985V43.1508H19.5577V40.5869ZM16.7985 40.5869H14.0392V43.1508H16.7985V40.5869ZM4.1766 38.0092H1.42V40.5869H4.17924L4.1766 38.0092ZM14.3211 57.5619H17.0803V54.9699H14.3211V57.5619ZM6.04442 44.6734H8.80366V42.0819H6.04442V44.6734ZM17.0808 54.9694H19.8396V52.3922H17.0803L17.0808 54.9694ZM14.3216 54.9694H17.0808L17.0803 52.3922H14.3216V54.9694ZM11.5624 54.9694H14.3216V52.3922H11.5397L11.5624 54.9694ZM14.3216 52.3922L17.0808 52.3917V49.8426H14.3216V52.3922ZM11.5624 52.3917L14.3216 52.3922V49.8426H11.5397L11.5624 52.3917ZM8.80312 52.3917L11.5397 52.3922V49.8426H8.78043L8.80312 52.3917ZM11.5397 49.8426H14.2979V47.2348H11.5386L11.5397 49.8426ZM8.78043 49.8426H11.5397V47.2348H8.78043V49.8426ZM6.02119 49.8426H8.78043V47.2348H6.02119V49.8426ZM8.78043 47.2649H11.5397V44.6591H8.78043V47.2649ZM6.02119 47.2649H8.78043V44.6591H6.02119V47.2649ZM3.26195 47.2649H6.02119V44.6591H3.26195V47.2649ZM14.3221 20.9909H17.0814V23.5681H14.3221V20.9909ZM6.04494 33.8858H8.80366V36.4635H6.04442L6.04494 33.8858ZM17.0808 23.5681H19.8396V26.1458H17.0803L17.0808 23.5681ZM14.3216 23.5681H17.0808L17.0803 26.1458H14.3216V23.5681ZM11.5624 23.5681H14.3216V26.1458H11.5397L11.5624 23.5681ZM14.3216 26.1458H17.0803L17.0808 28.7235H14.3216V26.1458ZM11.5624 26.1458H14.3216V28.7235H11.5397L11.5624 26.1458ZM8.80312 26.1458H11.5397V28.7235H8.78043L8.80312 26.1458ZM11.5397 28.7235H14.2979L14.2979 31.3298H11.5386L11.5397 28.7235ZM8.78043 28.7235H11.5397L11.5397 31.3298H8.78043V28.7235ZM6.02119 28.7235H8.78043V31.3298H6.02119V28.7235ZM8.80312 31.3298H11.5397V33.9144H8.78043L8.80312 31.3298ZM6.04388 31.3298H8.80366V33.9144H6.04442L6.04388 31.3298ZM0.0377274 60.1243L0.0377274 62.6591H1.42L1.42 60.0952L0.0377274 60.1243ZM0.0377274 57.5466V60.0957L1.42 60.0952V57.518L0.0377274 57.5466ZM0.0377274 54.9689V57.5466H1.42V54.9413L0.0377274 54.9689ZM0.0377274 38.022V40.5859H1.42V43.1498H0.0403671V40.5859H1.42V37.9944L0.0377274 38.022ZM0.0377274 35.4444V38.022H1.42V35.4172L0.0377274 35.4444ZM0.0377274 15.9193V18.497H1.42V21.0747H0.0403671V23.6524H1.42V21.0481H0.0403671V18.4704H1.42V15.8927L0.0377274 15.9193ZM3.28465 31.3278H6.04388V33.9124H3.28465V31.3278ZM70.7177 124.878H73.477V122.3H70.7177V124.878ZM22.7819 90.6238L4.97724 73.9831L12.3556 67.0887L22.7819 67.0887L22.7819 90.6238ZM31.0898 98.3781H29.7703L29.7703 67.0601H63.2544L63.2544 98.3475L31.0898 98.3781ZM63.2544 114.641L55.8839 121.533L38.0713 104.9H63.2232L63.2544 114.641ZM75.2514 113.025V110.445H73.1856V113.022L75.2514 113.025ZM67.9421 126.124H70.7014V124.849H73.4622V126.124H75.2382V124.849H73.4622V122.272H75.2382V119.694H73.4622V122.272H75.2382V124.85H73.4622V126.124H70.703V124.849H67.9437L67.9421 126.124ZM23.7351 126.124H29.6801L34.3372 121.759L38.9944 126.11H44.924L43.4462 124.729L35.8245 117.609L34.3008 116.219L32.823 117.608L26.6796 123.34L3.00597 101.201L9.14143 95.4622L10.6277 94.0816L9.1388 92.6946L1.51711 85.5744L0.0393219 84.1938V89.719L4.69646 94.0698L0.0393219 98.4205V103.96L23.7351 126.124ZM9.63439 126.124L15.5793 126.124L14.0931 124.743L1.51711 112.995L0.0393219 111.606V117.145L9.63439 126.124ZM60.8081 126.124L70.229 117.323V104.877H75.2366V98.3475H70.229V74.8499L75.2366 79.528V70.2714L63.256 59.0992V60.5232L29.7729 60.5232V50.7897L37.1508 43.8973C42.1647 39.2133 42.1584 39.3474 42.0898 39.2833C42.0212 39.2192 42.1658 39.2123 37.1508 34.6693L29.7714 27.7694V11.5065L12.3546 11.5065L0.0382538 0V9.25664L9.45917 18.0646H22.7819L22.7819 30.4827L32.2102 39.2838L22.7819 48.0848V60.5242H9.45863L0.0377274 69.3252V78.5819L50.9444 126.139L60.8081 126.124Z" fill="white"/>
<path d="M40.592 95.7707H37.8327V93.1949H40.592V95.7707ZM37.8327 95.7707H35.0735V93.1949H37.8327V95.7707ZM35.0735 90.6153H32.3142V88.0376H35.0735V90.6153ZM35.0735 93.193H32.3142V90.6153H35.0735V93.193ZM35.0735 95.7707H32.3142V93.1949H35.0735V95.7707ZM37.8327 93.193H35.0735V90.6153H37.8327V93.193ZM40.592 90.6153H37.8327V88.0376H40.592V90.6153ZM52.4285 69.6387H55.1878V72.2164H52.4285V69.6387ZM55.1878 69.6387H57.9475V72.2164H55.1883L55.1878 69.6387ZM57.947 74.7941H60.7063V77.3787H57.9475L57.947 74.7941ZM57.947 72.2164H60.7063V74.7655H57.9475L57.947 72.2164ZM57.947 69.6387H60.7063V72.2164H57.9475L57.947 69.6387ZM55.1878 72.2164H57.9475V74.7655H55.1883L55.1878 72.2164ZM52.4285 74.7941H55.1878V77.3787H52.4285V74.7941ZM52.4285 95.7707H55.1878V93.1949H52.4285V95.7707ZM55.1878 95.7707H57.9475V93.1949H55.1883L55.1878 95.7707ZM57.9475 90.6153H60.7068V88.0376H57.9475V90.6153ZM57.9475 93.193H60.7068V90.6153H57.9475L57.9475 93.193ZM57.9475 95.7707H60.7068V93.1949H57.9475V95.7707ZM55.1883 93.193H57.9475L57.9475 90.6153H55.1883L55.1883 93.193ZM52.4291 90.6153H55.1883V88.0376H52.4291V90.6153ZM40.5925 69.6387H37.8333V72.2164H40.5925V69.6387ZM37.8333 69.6387H35.074V72.2164H37.8333V69.6387ZM35.074 74.7941H32.3148V77.3787H35.074V74.7941ZM35.074 72.2164H32.3148V74.7655H35.074V72.2164ZM35.074 69.6387H32.3148V72.2164H35.074V69.6387ZM37.8333 72.2164H35.074V74.7655H37.8333V72.2164ZM40.5925 74.7941H37.8333V77.3787H40.5925V74.7941ZM17.0534 100.186L14.0657 100.186V102.978L17.0534 102.978V100.186ZM26.0167 114.15H23.029V116.941H26.0167V114.15ZM14.0678 102.976H11.0805V105.768H14.0678V102.976ZM17.0555 102.976L14.0678 102.976V105.768L17.0555 105.768V102.976ZM20.0433 102.976H17.0555V105.768H20.0433V102.976ZM17.0555 105.767L14.0678 105.767L14.0678 108.559L17.0555 108.559L17.0555 105.767ZM20.0433 105.767H17.0555L17.0555 108.559H20.0433L20.0433 105.767ZM23.0311 105.767H20.0433L20.0433 108.559H23.0311L23.0311 105.767ZM20.0433 108.559H17.0555V111.357H20.0433V108.559ZM23.0311 108.559H20.0433V111.357H23.0311V108.559ZM26.0189 108.559H23.0311V111.357H26.0167L26.0189 108.559ZM23.0311 111.357H20.0433V114.15H23.0311V111.357ZM26.0189 111.357H23.0311V114.15H26.0167L26.0189 111.357ZM29.014 111.357H26.0167V114.15H29.0146L29.014 111.357ZM4.17451 21.049V23.6247H6.96384V21.049H4.17451ZM1.41526 18.4713V21.049H4.17451V18.4713H1.41526ZM1.41526 21.049V23.6247H4.17451V21.049H1.41526ZM1.41526 23.6267V26.2044H4.17451V23.6247L1.41526 23.6267ZM6.96384 57.5194V54.9417H4.20457V57.5194H6.96384ZM4.20457 60.0971V57.5194H1.44534V60.0971H4.20457ZM4.20457 57.5194V54.9417H1.44534V57.5194H4.20457ZM4.20457 54.9417V52.3644H1.44534V54.9417H4.20457ZM19.5557 43.1497H16.7964V45.7274H19.5557V43.1497ZM19.5557 32.8394H16.7964V35.4171H19.5557V32.8394ZM22.3149 35.4171H19.5557V37.9948H22.3149V35.4171ZM19.5557 35.4171H16.7964V37.9948H19.5557V35.4171ZM16.7964 35.4171H14.0361V37.9948H16.7964V35.4171ZM25.0736 37.9948H22.3144V40.5858H25.0736V37.9948ZM22.3144 37.9948H19.5551V40.5858H22.3144V37.9948ZM19.5551 37.9948H16.7964L16.7959 40.5858H19.5551V37.9948ZM22.3144 40.5868H19.5551V43.1507H22.3144V40.5868ZM19.5551 40.5868H16.7959V43.1507H19.5551V40.5868ZM16.7959 40.5868H14.0361V43.1507H16.7959V40.5868ZM4.17397 38.0091H1.41473V40.5858H4.17397V38.0091ZM14.3185 57.5618H17.0777V54.9698H14.3185V57.5618ZM6.04179 44.6742H8.80103V42.0822H6.04179V44.6742ZM17.0782 54.9703H19.8375V52.393H17.0782V54.9703ZM14.319 54.9703H17.0782V52.393H14.319V54.9703ZM11.5597 54.9703H14.319V52.393H11.5371L11.5597 54.9703ZM14.319 52.393H17.0782V49.8435H14.319V52.393ZM11.5597 52.3926L14.319 52.393V49.8435H11.5371L11.5597 52.3926ZM8.80051 52.3926L11.5371 52.393V49.8435H8.77781L8.80051 52.3926ZM11.5371 49.8435H14.2963V47.2376H11.5371V49.8435ZM8.77781 49.8435H11.5371V47.2376H8.77781V49.8435ZM6.01857 49.8435H8.77781V47.2376H6.01857V49.8435ZM8.77781 47.2658H11.5371L11.5371 44.66H8.77781V47.2658ZM6.01857 47.2658H8.77781V44.66H6.01857V47.2658ZM3.25933 47.2658H6.0191V44.66H3.25986L3.25933 47.2658ZM14.3195 20.9918H17.0788V23.5695H14.3195V20.9918ZM6.04233 33.8867H8.80157V36.4644H6.04233V33.8867ZM17.0788 23.5695H19.8375V26.1472H17.0782L17.0788 23.5695ZM14.319 23.5695H17.0788L17.0782 26.1472H14.319V23.5695ZM11.5597 23.5695H14.319V26.1472H11.5371L11.5597 23.5695ZM14.319 26.1472H17.0782V28.7249H14.319V26.1472ZM11.5597 26.1472H14.319V28.7249H11.5371L11.5597 26.1472ZM8.80051 26.1472H11.5371V28.7249H8.77781L8.80051 26.1472ZM11.5371 28.7249H14.2963V31.3312H11.5371V28.7249ZM8.77781 28.7249H11.5371V31.3312H8.77781V28.7249ZM6.01857 28.7249H8.77781V31.3312H6.01857V28.7249ZM8.80051 31.3312H11.5371V33.9158H8.77781L8.80051 31.3312ZM6.04126 31.3312H8.80051V33.9158H6.04126V31.3312ZM0.0351028 60.1257V62.6605H1.41473V60.0966L0.0351028 60.1257ZM0.0351028 57.548V60.0971L1.41473 60.0966V57.5194L0.0351028 57.548ZM0.0351028 54.9703V57.547H1.41473V54.9407L0.0351028 54.9703ZM0.0351028 38.0234V40.5873H1.41473V43.1512H0.0351028V40.5858H1.41473V37.9953L0.0351028 38.0234ZM0.0351028 35.4457V38.0219H1.41473V35.4176L0.0351028 35.4457ZM0.0351028 15.9207V18.4984H1.41473V21.0761H0.0351028V23.6538H1.41473V21.049H0.0351028V18.4713H1.41473V15.8936L0.0351028 15.9207ZM3.28202 31.3292H6.04126V33.9138H3.28202V31.3292ZM70.7135 124.879H73.4728V122.301H70.7135V124.879ZM23.191 21.362L22.7793 21.7821C22.9085 21.6354 23.0459 21.4952 23.191 21.362ZM32.3375 65.4088L32.5127 65.074L32.3449 65.3516L32.3375 65.4088ZM49.4503 98.3622H49.3817H49.4503ZM56.7215 98.3622L55.8449 99.0313C56.105 98.7754 56.3938 98.5463 56.7062 98.3479L56.7215 98.3622ZM75.2641 113.016V110.438H73.2004V113.016H75.2641ZM67.9395 126.125H70.6988V124.849H73.458V126.124H75.234V124.849H73.458V122.271H75.234V119.694H73.458V122.271H75.234V124.849H73.458V126.124H70.6988V124.849H67.9395V126.125ZM23.7325 126.125H29.6774L34.3346 121.76L38.9917 126.11H44.9214L34.3346 116.221L26.7129 123.341L3.00124 101.203L10.6224 94.0824L0.0356369 84.1922V89.7179L4.69279 94.0686L0.0356369 98.4194V103.959L23.7325 126.125ZM9.63177 126.125L15.5767 126.125L0.0356369 111.606V117.146L9.63177 126.125Z" fill="white"/>
</svg>
