<svg width="35" height="25" viewBox="0 0 35 25" fill="none" xmlns="http://www.w3.org/2000/svg">
<g clip-path="url(#clip0_393_238)">
<path d="M8.75092 20.476C8.75092 21.2478 8.57174 21.9333 8.21329 22.5326C7.85489 23.132 7.34774 23.6021 6.69188 23.9427C6.03603 24.2794 5.26581 24.4477 4.38119 24.4477C3.49275 24.4477 2.72061 24.2773 2.06476 23.9366C1.40511 23.5959 0.896066 23.1279 0.537641 22.5326C0.179213 21.9333 3.13346e-08 21.2478 0 20.476C-3.13346e-08 19.7042 0.179213 19.0207 0.537641 18.4255C0.896066 17.8303 1.40511 17.3643 2.06476 17.0277C2.72061 16.687 3.49275 16.5166 4.38119 16.5166C5.26581 16.5166 6.03603 16.687 6.69188 17.0277C7.34774 17.3643 7.85489 17.8303 8.21329 18.4255C8.57174 19.0207 8.75092 19.7042 8.75092 20.476ZM8.02455 20.476C8.02455 19.8766 7.87966 19.3389 7.58984 18.8627C7.30007 18.3865 6.88444 18.0109 6.343 17.7358C5.79774 17.4608 5.14382 17.3233 4.38119 17.3233C3.61476 17.3233 2.95892 17.4608 2.41365 17.7358C1.86839 18.0109 1.45086 18.3865 1.16107 18.8627C0.871281 19.3389 0.726385 19.8766 0.726385 20.476C0.726385 21.0753 0.871281 21.6152 1.16107 22.0955C1.45086 22.5717 1.86839 22.9493 2.41365 23.2285C2.95892 23.5035 3.61476 23.641 4.38119 23.641C5.14 23.641 5.79199 23.5035 6.3373 23.2285C6.88255 22.9534 7.30007 22.5778 7.58984 22.1016C7.87966 21.6213 8.02455 21.0794 8.02455 20.476Z" fill="white"/>
<path d="M0.114258 7.73633H8.63642V8.56148L1.50411 13.9741V14.0541H8.63642V14.8916H0.114258V14.0788L7.25797 8.63536V8.56766H0.114258L0.114258 7.73633Z" fill="white"/>
<path d="M8.63642 5.69094H0.114258V0.364528H0.817763V4.85347H3.99784V0.647783H4.69565V4.85347H7.9386V0.27832H8.63642V5.69094Z" fill="white"/>
<path d="M22.9157 8.4043C21.3404 8.4043 20.0635 9.77908 20.0635 11.475V24.7275H22.9908C23.9484 24.7275 24.8787 24.6013 25.7679 24.3635V11.475C25.7679 9.77908 24.4909 8.4043 22.9157 8.4043Z" fill="white"/>
<path d="M34.4747 12.3628C34.4747 16.989 32.1148 21.0217 28.6201 23.1416V1.58398C32.1148 3.70392 34.4747 7.73662 34.4747 12.3628Z" fill="white"/>
<path d="M17.2113 0H11.5068V24.7273H17.2113V0Z" fill="white"/>
<path d="M25.918 3.15152C25.918 4.89205 24.6075 6.30303 22.9908 6.30303C21.3741 6.30303 20.0635 4.89205 20.0635 3.15152C20.0635 1.41098 21.3741 0 22.9908 0C24.6075 0 25.918 1.41098 25.918 3.15152Z" fill="white"/>
</g>
<defs>
<clipPath id="clip0_393_238">
<rect width="34.4751" height="24.7273" fill="white"/>
</clipPath>
</defs>
</svg>
