<svg width="215" height="213" viewBox="0 0 215 213" fill="none" xmlns="http://www.w3.org/2000/svg">
<path d="M176.722 95.7699H179.323V93.1922H176.722V95.7699ZM179.323 95.7699H181.925V93.1922H179.323V95.7699ZM181.925 90.6145H184.525V88.0368H181.923L181.925 90.6145ZM181.925 93.1922H184.525V90.6145H181.923L181.925 93.1922ZM181.925 95.7699H184.525V93.1922H181.923L181.925 95.7699ZM179.323 93.1922H181.925V90.6145H179.323V93.1922ZM176.722 90.6145H179.323V88.0368H176.722V90.6145ZM165.56 69.6379H162.958V72.2156H165.56V69.6379ZM162.958 69.6379H160.356V72.2156H162.958V69.6379ZM160.356 74.7657H157.754V77.3434H160.356V74.7657ZM160.356 72.188H157.754V74.7657H160.356V72.188ZM160.356 69.6103H157.754V72.188H160.356V69.6103ZM162.958 72.188H160.356V74.7657H162.958V72.188ZM165.56 74.7657H162.958V77.3434H165.56V74.7657ZM165.56 95.7423H162.958V93.1646H165.56V95.7423ZM162.958 95.7423H160.356V93.1646H162.958V95.7423ZM160.356 90.5869H157.754V88.0106H160.356V90.5869ZM160.356 93.1646H157.754V90.5869H160.356V93.1646ZM160.356 95.7423H157.754V93.1646H160.356V95.7423ZM162.958 93.1646H160.356V90.5869H162.958V93.1646ZM165.56 90.5869H162.958V88.0106H165.56V90.5869ZM176.722 69.6384H179.324V72.2161H176.722V69.6384ZM179.324 69.6384H181.926V72.2161H179.324V69.6384ZM181.926 74.7938H184.525V77.3715H181.923L181.926 74.7938ZM181.926 72.2161H184.525V74.7652H181.923L181.926 72.2161ZM181.926 69.6384H184.525V72.2161H181.923L181.926 69.6384ZM179.324 72.2161H181.926V74.7652H179.324V72.2161ZM176.722 74.7652H179.324V77.3429H176.722V74.7652ZM176.722 182.583H179.324V180.005H176.722V182.583ZM179.324 182.583H181.926V180.005H179.324V182.583ZM181.926 177.427H184.525V174.878H181.923L181.926 177.427ZM181.926 180.005H184.525V177.427H181.923L181.926 180.005ZM181.926 182.583H184.525V180.005H181.923L181.926 182.583ZM179.324 180.005H181.926V177.427H179.324V180.005ZM176.722 177.427H179.324V174.878H176.722V177.427ZM165.56 156.451H162.958V159.029H165.56V156.451ZM162.958 156.451H160.357V159.029H162.958V156.451ZM160.357 161.634H157.755V164.212H160.357V161.634ZM160.357 159.05H157.755V161.634H160.357V159.05ZM160.357 156.472H157.755V159.05H160.357V156.472ZM162.958 159.05H160.357V161.634H162.958V159.05ZM165.56 161.634H162.958V164.212H165.56V161.634ZM165.56 182.604H162.958V180.026H165.56V182.604ZM162.958 182.604H160.357V180.026H162.958V182.604ZM160.357 177.449H157.755V174.878H160.357V177.449ZM160.357 180.026H157.755V177.449H160.357V180.026ZM160.357 182.604H157.755V180.026H160.357V182.604ZM162.958 180.026H160.357V177.449H162.958V180.026ZM165.56 177.449H162.958V174.878H165.56V177.449ZM176.722 156.472H179.324V159.05H176.722V156.472ZM179.324 156.472H181.926V159.05H179.324V156.472ZM181.926 161.634H184.525V164.212H181.923L181.926 161.634ZM181.926 159.05H184.525V161.634H181.923L181.926 159.05ZM181.926 156.472H184.525V159.05H181.923L181.926 156.472ZM179.324 159.05H181.926V161.634H179.324V159.05ZM176.722 161.634H179.324V164.212H176.722V161.634ZM198.919 152.057H201.737V149.266H198.919V152.057ZM190.467 138.137H193.285V135.288H190.467V138.137ZM201.744 149.302H204.562V146.51H201.744V149.302ZM198.927 149.302H201.744V146.51H198.927V149.302ZM196.109 149.302H198.927V146.51H196.106L196.109 149.302ZM198.927 146.51H201.744V143.691H198.927V146.51ZM196.109 146.51H198.927V143.691H196.106L196.109 146.51ZM193.285 146.51H196.109V143.691H193.285V146.51ZM196.109 143.719H198.927V140.928H196.106L196.109 143.719ZM193.285 143.719H196.109V140.928H193.285V143.719ZM190.468 143.719H193.285V140.928H190.468V143.719ZM193.285 140.928H196.109V138.137H193.285V140.928ZM190.468 140.928H193.285V138.137H190.468V140.928ZM187.65 140.928H190.468V138.137H187.65V140.928ZM198.927 100.213H201.745V103.005H198.927V100.213ZM190.467 114.148H193.291V116.939H190.467V114.148ZM201.744 102.976H204.561V105.767H201.744V102.976ZM198.926 102.976H201.744V105.767H198.926V102.976ZM196.109 102.976H198.926V105.767H196.106L196.109 102.976ZM198.926 105.767H201.744V108.558H198.926V105.767ZM196.109 105.767H198.926V108.558H196.106L196.109 105.767ZM193.291 105.767H196.109V108.558H193.291V105.767ZM196.109 108.558H198.926V111.349H196.106L196.109 108.558ZM193.291 108.558H196.109V111.349H193.291V108.558ZM190.467 108.558H193.291V111.349H190.467V108.558ZM193.291 111.349H196.109V114.148H193.291V111.349ZM190.467 111.349H193.291V114.148H190.467V111.349ZM187.65 111.349H190.467V114.148H187.65V111.349ZM214.961 148.283V153.802L210.592 158.174L214.983 162.524V168.043L213.59 166.654L206.398 159.533L204.997 158.153L206.398 156.764L212.184 151.033L189.81 128.881L183.995 134.635L182.623 136.002L181.185 134.621L173.998 127.501L172.605 126.077H178.247L182.638 130.428L187.03 126.077H192.622L214.981 148.236L214.961 148.283ZM214.961 135.103V140.643L213.568 139.262L201.705 127.513L200.303 126.089H205.895L214.958 135.068L214.961 135.103ZM214.961 111.606V117.145L205.895 126.124H200.31L201.712 124.743L213.571 112.995L214.964 111.606L214.961 111.606ZM172.639 126.124L174.033 124.743L181.22 117.623L182.657 116.235L184.051 117.623L189.844 123.355L212.204 101.203L206.418 95.4642L205.016 94.0836L206.419 92.6947L213.607 85.5745L215 84.1939V89.7191L210.587 94.0841L214.979 98.4349V103.961L192.62 126.124H187.013L182.622 121.759L178.244 126.124H172.639ZM211.061 194.729V197.307H208.43V194.729H211.061ZM213.663 192.152V194.729H211.061V192.152H213.663ZM213.663 194.729V197.307H211.061V194.729H213.663ZM213.663 197.307V199.885H211.061V197.308L213.663 197.307ZM196.559 206.492H199.161V209.07H196.559V206.492ZM193.957 209.07H196.559V211.648H193.957V209.07ZM196.559 209.07H199.161V211.648H196.559V209.07ZM199.161 209.07H201.763V211.648H199.161V209.07ZM201.496 194.644H198.894V197.236H201.496V194.644ZM209.301 207.532H206.699V210.117H209.301V207.532ZM198.894 197.236H196.292V199.814H198.894V197.236ZM201.496 197.236H198.894V199.814H201.496V197.236ZM204.098 197.236H201.496V199.814H204.119L204.098 197.236ZM201.496 199.813H198.894V202.391H201.496V199.813ZM204.098 199.813H201.496V202.391H204.119L204.098 199.813ZM206.7 199.813H204.12V202.391H206.722L206.7 199.813ZM204.12 202.405H201.518V204.983H204.12V202.405ZM206.722 202.405H204.12V204.983H206.722V202.405ZM209.323 202.405H206.722V204.983H209.323V202.405ZM206.722 204.983H204.12V207.561H206.722V204.983ZM209.323 204.983H206.722V207.561H209.323V204.983ZM214.987 209.098V211.676H213.686V209.098H214.987ZM214.987 189.573V192.151H213.686V194.729H214.987V197.307H213.686V194.729H214.987V192.151H213.686V189.573H214.987ZM211.925 204.982H209.323V207.56H211.925V204.982ZM211.063 21.0471V23.6248H208.432V21.0481L211.063 21.0471ZM213.665 18.4694V21.0471H211.063V18.4704L213.665 18.4694ZM213.665 21.0471V23.6248H211.063V21.0481L213.665 21.0471ZM213.665 23.6248V26.2025H211.063V23.6258L213.665 23.6248ZM208.433 57.518V54.9413H211.034V57.519L208.433 57.518ZM211.034 60.0957V57.518H213.636V60.0957H211.034ZM211.034 57.518V54.9413H213.636V57.519L211.034 57.518ZM211.034 54.9403V52.3626H213.636V54.9403H211.034ZM196.559 43.1499H199.161V45.7276H196.559V43.1499ZM196.559 32.8396H199.161V35.4173H196.559V32.8396ZM193.957 35.4173H196.559V37.995H193.957V35.4173ZM196.559 35.4173H199.161V37.995H196.559V35.4173ZM199.161 35.4173H201.763V37.995H199.161V35.4173ZM191.355 37.995H193.957V40.587H191.355V37.995ZM193.957 37.995H196.559V40.587H193.957V37.995ZM196.559 37.995H199.161L199.161 40.587H196.559L196.559 37.995ZM193.957 40.587H196.559V43.1509H193.957V40.587ZM196.559 40.587H199.161V43.1509H196.559L196.559 40.587ZM199.161 40.587H201.763V43.1509H199.161V40.587ZM211.063 38.0093H213.665V40.587H211.063V38.0093ZM201.496 57.5471H198.894V54.9694H201.496V57.5471ZM209.301 44.6591H206.699V42.0819H209.301V44.6591ZM198.894 54.9694H196.292V52.3922H198.894V54.9694ZM201.496 54.9694H198.894V52.3922H201.496V54.9694ZM204.098 54.9694H201.496V52.3922H204.119L204.098 54.9694ZM201.496 52.3922H198.894V49.8431H201.496V52.3922ZM204.098 52.3922H201.496V49.8431H204.119L204.098 52.3922ZM206.7 52.3922H204.12V49.8431H206.722L206.7 52.3922ZM204.12 49.8431H201.518V47.2348H204.12V49.8431ZM206.722 49.8431H204.12V47.2348H206.722V49.8431ZM209.323 49.8431H206.722V47.2348H209.323V49.8431ZM206.722 47.2654H204.12V44.6591H206.722V47.2654ZM209.323 47.2654H206.722V44.6591H209.323V47.2654ZM211.925 47.2654H209.323V44.6591H211.925V47.2654ZM201.496 20.9909H198.894V23.5681H201.496V20.9909ZM209.301 33.8789H206.699V36.4635H209.301V33.8789ZM198.894 23.5681H196.293V26.1458H198.894V23.5681ZM201.496 23.5681H198.894V26.1458H201.496L201.496 23.5681ZM204.098 23.5681H201.496V26.1458H204.119L204.098 23.5681ZM201.496 26.1458L198.894 26.1463V28.724H201.496V26.1458ZM204.098 26.1463L201.496 26.1458V28.724H204.119L204.098 26.1463ZM206.7 26.1463H204.12V28.724H206.722L206.7 26.1463ZM204.12 28.724H201.518V31.3303H204.12V28.724ZM206.722 28.724H204.12V31.3303H206.722V28.724ZM209.323 28.724H206.722V31.3303H209.323V28.724ZM206.7 31.3303H204.12V33.9075H206.722L206.7 31.3303ZM209.302 31.3303H206.7V33.9075H209.302V31.3303ZM214.966 60.1248V62.6596H213.664V60.0957L214.966 60.1248ZM214.966 57.5471V60.0962L213.664 60.0957V57.5185L214.966 57.5471ZM214.966 54.9694V57.5471H213.664V54.9413L214.966 54.9694ZM214.966 38.0226V40.5865H213.664V43.1504H214.965V40.5865H213.664V37.9945L214.966 38.0226ZM214.966 35.4449V38.0226H213.664V35.4173L214.966 35.4449ZM214.966 15.9198V18.4975H213.664V21.0752H214.965V23.6529H213.664V21.0481H214.965V18.4704H213.664V15.8927L214.966 15.9198ZM211.904 31.3283H209.302V33.9075H211.904V31.3283ZM123.409 107.903V110.481H120.807V107.903H123.409ZM133.816 107.903V110.481H131.214V107.903H133.816ZM131.214 105.325V107.903H128.612V105.325H131.214ZM131.214 107.903V110.481H128.612V107.903H131.214ZM131.214 110.481V113.058H128.612V110.481H131.214ZM128.612 102.748V105.325L126.01 105.326V102.748H128.612ZM128.612 105.325V107.903L126.01 107.904V105.326L128.612 105.325ZM128.612 107.903V110.481H126.01V107.904L128.612 107.903ZM126.01 105.326V107.904L123.409 107.903V105.326H126.01ZM126.01 107.904V110.481H123.409V107.903L126.01 107.904ZM126.01 110.481V113.058H123.409V110.481L126.01 110.481ZM131.214 144.374V141.797H133.816V144.374H131.214ZM120.807 144.374V141.797H123.409V144.374H120.807ZM123.409 146.952V144.374H126.011V146.952H123.409ZM123.409 144.374V141.797H126.011V144.374H123.409ZM123.409 141.797V139.219H126.011V141.797H123.409ZM126.011 149.529V146.952H128.613V149.529H126.011ZM126.011 146.952V144.374H128.613V146.952H126.011ZM126.011 144.374V141.796H128.613V144.374H126.011ZM128.613 146.952V144.374H131.215V146.952H128.613ZM128.613 144.374V141.796H131.215V144.374H128.613ZM128.613 141.796V139.219H131.215V141.796H128.613ZM145.719 122.271H143.117V119.694H145.719V122.271ZM145.719 132.582H143.117V130.004H145.719V132.582ZM148.321 130.004H145.719V127.455H148.321V130.004ZM145.719 130.004H143.117V127.455H145.719V130.004ZM143.117 130.004H140.515V127.455H143.117V130.004ZM150.936 127.455H148.334V124.877H150.936V127.455ZM148.334 127.455H145.73V124.877H148.332L148.334 127.455ZM145.733 127.455H143.131V124.877H145.733V127.455ZM148.334 124.877H145.73V122.299H148.332L148.334 124.877ZM145.733 124.877H143.131V122.299H145.733V124.877ZM143.131 124.877H140.514V122.299H143.116L143.131 124.877ZM108.919 130.032H111.521V132.61H108.919V130.032ZM108.919 119.722H111.521V122.3H108.919V119.722ZM106.317 122.3H108.919V124.877H106.303L106.317 122.3ZM108.919 122.3H111.521V124.877H108.919V122.3ZM111.521 122.3H114.123V124.877H111.521V122.3ZM103.716 124.877H106.318V127.455H103.716V124.877ZM106.318 124.877H108.92V127.455H106.303L106.318 124.877ZM108.92 124.877H111.521L111.522 127.455H108.92V124.877ZM106.303 127.455H108.905V130.033H106.303V127.455ZM108.905 127.455H111.507V130.033H108.905V127.455ZM111.507 127.455H114.109V130.033H111.504L111.507 127.455ZM123.409 124.877H126.011V127.455H123.409L123.409 124.877ZM126.011 124.877H128.613V127.455H126.011V124.877ZM128.613 124.877H131.215V127.455H128.613V124.877ZM126.011 122.3H128.613V124.877H126.011V122.3ZM126.011 127.455H128.613V130.033H126.011V127.455ZM140.788 144.43H143.39V141.852H140.788V144.43ZM132.968 131.512H135.57V128.934H132.964L132.968 131.512ZM143.376 141.822H145.977V139.245H143.389L143.376 141.822ZM140.774 141.822H143.376V139.245H140.774V141.822ZM138.172 141.822H140.774V139.245H138.172V141.822ZM140.774 139.245H143.376V136.667H140.774V139.245ZM138.172 139.245H140.774V136.667H138.172V139.245ZM135.57 139.245H138.172V136.667H135.567L135.57 139.245ZM138.172 136.667H140.774V134.092H138.172V136.667ZM135.57 136.667H138.172V134.092H135.567L135.57 136.667ZM132.968 136.667H135.57V134.092H132.964L132.968 136.667ZM135.57 134.089H138.172V131.512H135.567L135.57 134.089ZM132.968 134.089H135.57V131.512H132.964L132.968 134.089ZM130.366 134.089H132.964V131.512H130.376L130.366 134.089ZM140.773 107.843H143.375V110.421H140.773V107.843ZM132.964 120.734H135.566V123.318H132.964V120.734ZM143.372 110.424H145.973V113.001H143.385L143.372 110.424ZM140.77 110.424H143.372V113.001H140.77V110.424ZM138.168 110.424H140.77V113.001H138.168V110.424ZM140.77 113.001H143.372V115.579H140.77V113.001ZM138.168 113.001H140.77V115.579H138.168V113.001ZM135.566 113.001H138.168V115.579H135.567L135.566 113.001ZM138.168 115.579H140.77V118.157H138.168V115.579ZM135.566 115.579H138.168V118.157H135.567L135.566 115.579ZM132.964 115.579H135.566V118.157H132.964L132.964 115.579ZM135.566 118.157H138.168V120.734H135.567L135.566 118.157ZM132.964 118.157H135.566V120.734H132.964L132.964 118.157ZM130.362 118.157H132.964V120.734H130.376L130.362 118.157ZM113.831 144.403H111.229V141.825H113.831V144.403ZM121.637 131.515H119.035V128.934H121.637V131.515ZM111.229 141.825H108.628V139.247H111.229V141.825ZM113.831 141.825H111.229V139.247H113.831V141.825ZM116.433 141.825H113.831V139.247H116.433V141.825ZM113.831 139.247H111.229V136.669H113.831V139.247ZM116.433 139.247H113.831V136.669H116.433V139.247ZM119.035 139.247H116.433V136.669H119.035V139.247ZM116.433 136.669H113.831V134.092H116.433V136.669ZM119.035 136.669H116.433V134.092H119.035V136.669ZM121.637 136.669H119.035V134.092H121.637V136.669ZM119.035 134.092H116.433V131.514H119.035V134.092ZM121.637 134.092H119.035V131.514H121.637V134.092ZM124.239 134.092H121.637V131.514H124.239V134.092ZM113.832 107.846H111.23V110.424H113.832V107.846ZM121.637 120.734H119.035V123.318H121.637V120.734ZM111.23 110.424H108.628V113.001H111.229L111.23 110.424ZM113.832 110.424H111.23L111.229 113.001H113.832V110.424ZM116.434 110.424H113.832V113.001H116.434V110.424ZM113.832 113.001H111.229L111.23 115.579H113.832V113.001ZM116.434 113.001H113.832V115.579H116.434V113.001ZM119.036 113.001H116.434V115.579H119.036V113.001ZM116.434 115.579H113.832V118.157H116.434V115.579ZM119.036 115.579H116.434V118.157H119.036V115.579ZM121.638 115.579H119.036V118.157H121.638V115.579ZM119.036 118.157H116.434V120.734H119.036V118.157ZM121.638 118.157H119.036V120.734H121.638V118.157ZM124.24 118.157H121.638V120.734H124.24V118.157ZM143.358 187.025H140.54V189.817H143.358V187.025ZM151.81 200.989H148.992V203.78H151.81V200.989ZM140.54 189.817H137.723V192.608H140.54V189.817ZM143.358 189.817H140.54V192.608H143.358V189.817ZM146.175 189.817H143.358V192.608H146.175V189.817ZM143.358 192.608H140.54V195.398H143.358V192.608ZM146.175 192.608H143.358V195.398H146.175V192.608ZM148.992 192.608H146.175V195.398H148.992V192.608ZM146.175 195.399H143.358V198.19H146.175V195.399ZM148.992 195.399H146.175V198.19H148.992V195.399ZM151.81 195.399H148.992V198.19H151.81V195.399ZM148.992 198.19H146.175V200.988H148.992V198.19ZM151.81 198.19H148.992V200.988H151.81V198.19ZM154.627 198.19H151.81V200.988H154.627V198.19ZM111.259 187.025H114.077V189.817H111.259V187.025ZM102.778 200.989H105.653V203.78H102.778V200.989ZM114.048 189.817H116.865V192.608H114.048V189.817ZM111.23 189.817H114.048V192.608H111.261L111.23 189.817ZM108.413 189.817H111.23V192.608H108.414L108.413 189.817ZM111.23 192.608H114.048V195.398H111.261L111.23 192.608ZM108.413 192.608H111.23V195.398H108.414L108.413 192.608ZM105.596 192.608H108.413V195.398H105.653L105.596 192.608ZM108.413 195.399H111.23V198.19H108.414L108.413 195.399ZM105.596 195.399H108.413V198.19H105.653L105.596 195.399ZM102.778 195.399H105.653V198.19H102.778V195.399ZM105.596 198.19H108.413V200.988H105.653L105.596 198.19ZM102.778 198.19H105.653V200.988H102.778V198.19ZM99.9539 198.19H102.778V200.988H99.9539V198.19ZM114.026 211.584L125.886 199.836L127.279 198.447L128.717 199.836L140.579 211.584L141.973 212.964H136.38L127.316 203.985L118.253 212.964H112.661L114.026 211.584ZM127.309 176.586L122.903 180.923L127.294 185.274L131.686 180.923L127.309 176.586ZM84.983 212.979L86.3765 211.598L93.5636 204.478L94.9651 203.09L96.3586 204.478L102.152 210.21L124.511 188.058L118.728 182.283L117.326 180.903L118.728 179.479L125.915 172.358L127.308 170.978L128.746 172.358L135.933 179.479L137.326 180.903L135.896 182.283L130.088 188.043L152.448 210.195L158.241 204.463L159.642 203.075L161.036 204.463L168.223 211.584L169.624 212.964H164.036L159.659 208.628L155.246 212.964H149.662L127.309 190.826L104.935 212.964H99.3433L94.9661 208.628L90.5601 212.964L84.983 212.979ZM186.928 191.732H163.152L179.942 208.366L186.899 201.473L186.928 191.732ZM186.928 155.147V153.914H155.354V185.201H186.928V155.147ZM210.308 178.31L193.518 161.634V185.132H203.351L210.308 178.31ZM193.518 90.5948L210.308 73.9541L203.351 67.0616H193.518V90.5948ZM185.684 98.3476H186.929V67.0602H155.354V98.3476H185.684ZM138.924 98.3476H148.778V74.85L131.981 91.4832L138.924 98.3476ZM155.354 114.639L162.304 121.532L179.1 104.898H155.383L155.354 114.639ZM155.354 137.653V147.393H179.072L162.275 130.753L155.354 137.653ZM138.924 153.923L131.967 160.816L148.777 177.435V153.901L138.924 153.923ZM115.694 153.923H105.862V177.457L122.652 160.816L115.694 153.923ZM99.2706 137.653L92.3144 130.759L75.525 147.392H99.2432L99.2706 137.653ZM99.2706 114.639V104.877H75.5534L92.3428 121.51L99.2706 114.639ZM115.715 98.3476L122.672 91.4551L105.884 74.8214V98.319L115.715 98.3476ZM184.649 212.986H175.306L127.309 165.406L79.3054 212.964H69.9619L99.2427 183.955V153.901H59.6553L87.6855 126.131L59.6553 98.3614H99.3074V59.0993L127.338 86.8687L155.368 59.0993V60.5232H186.941V50.7898L179.985 43.8973C175.257 39.2133 175.263 39.3474 175.327 39.2833C175.392 39.2192 175.256 39.2123 179.985 34.6693L186.928 27.7695V11.5065H203.351L214.965 0V9.25665L206.082 18.036H193.518V30.4827L184.628 39.2838L193.518 48.0849V60.5242H206.082L214.966 69.3253V78.5819L166.961 126.124L214.965 173.681V182.938L206.081 191.746H193.518V204.193L184.649 212.986ZM193.993 212.986H191.393V211.697H193.995L193.993 212.986ZM196.595 212.986H193.993V211.697H196.595V212.986ZM199.197 212.986H196.595V211.697H199.197V212.986ZM213.701 212.986H211.099V211.697H213.701V212.986ZM215.002 212.986H213.701V211.697H215.002V212.986ZM127.316 96.0904L118.432 104.898H105.862V117.345L96.9718 126.146L105.862 134.947V147.394H118.426L127.31 156.195L136.2 147.394H148.778V134.925L157.662 126.124L148.778 117.323V104.877H136.199L127.316 96.0904Z" fill="white"/>
<path d="M167.635 95.7013H169.977V93.124H167.635V95.7013ZM169.976 95.7013H172.316V93.124H169.977L169.976 95.7013ZM172.316 90.5429H174.657V87.9636H172.316V90.5429ZM172.316 93.1221H174.657V90.5429H172.316V93.1221ZM172.316 95.7013H174.657V93.124H172.316V95.7013ZM169.977 93.124H172.317V90.5448H169.977V93.124ZM167.636 90.5448H169.977V87.9636H167.635L167.636 90.5448ZM157.594 69.5559H155.254V72.1351H157.594V69.5559ZM155.254 69.5559H152.913V72.1351H155.254V69.5559ZM152.913 74.6867H150.572V77.2659H152.913V74.6867ZM152.913 72.1075H150.572V74.6867H152.913V72.1075ZM152.913 69.5283H150.572V72.1075H152.913V69.5283ZM155.254 72.1075H152.913V74.6867H155.254V72.1075ZM157.594 74.6867H155.254V77.2659H157.594V74.6867ZM157.594 95.6756H155.254V93.0964H157.594V95.6756ZM155.254 95.6756H152.913V93.0964H155.254V95.6756ZM152.913 90.5172H150.572V87.938H152.913V90.5172ZM152.913 93.0964H150.572V90.5142H152.913V93.0964ZM152.913 95.6756H150.572V93.0964H152.913V95.6756ZM155.254 93.0964H152.913V90.5142H155.254V93.0964ZM157.594 90.5172H155.254V87.938H157.594V90.5172ZM167.636 69.5564H169.977V72.1356H167.635L167.636 69.5564ZM169.977 69.5564H172.317V72.1356H169.977V69.5564ZM172.317 74.7149H174.658V77.2941H172.317V74.7149ZM172.317 72.1356H174.658V74.6862H172.317V72.1356ZM172.317 69.5564H174.658V72.1356H172.317V69.5564ZM169.977 72.1356H172.317V74.6862H169.977V72.1356ZM167.636 74.6862H169.977V77.2654H167.635L167.636 74.6862ZM167.636 182.567H169.977V179.988H167.635L167.636 182.567ZM169.977 182.567H172.317V179.988H169.977V182.567ZM172.317 177.409H174.658V174.858H172.317V177.409ZM172.317 179.988H174.658V177.409H172.317V179.988ZM172.317 182.567H174.658V179.988H172.317V182.567ZM169.977 179.988H172.317V177.409H169.977V179.988ZM167.636 177.409H169.977V174.858H167.635L167.636 177.409ZM157.594 156.42H155.254V158.999H157.594V156.42ZM155.254 156.42H152.913V158.999H155.254V156.42ZM152.913 161.606H150.572V164.186H152.913V161.606ZM152.913 159.02H150.572V161.606H152.913V159.02ZM152.913 156.441H150.572V159.02H152.913V156.441ZM155.254 159.02H152.913V161.606H155.254V159.02ZM157.594 161.606H155.254V164.186H157.594V161.606ZM157.594 182.588H155.254V180.009H157.594V182.588ZM155.254 182.588H152.913V180.009H155.254V182.588ZM152.913 177.43H150.572V174.858H152.913V177.43ZM152.913 180.009H150.572V177.43H152.913V180.009ZM152.913 182.588H150.572V180.009H152.913V182.588ZM155.254 180.009H152.913V177.43H155.254V180.009ZM157.594 177.43H155.254V174.858H157.594V177.43ZM167.636 156.441H169.977V159.02H167.635L167.636 156.441ZM169.977 156.441H172.317V159.02H169.977V156.441ZM172.317 161.606H174.658V164.186H172.317V161.606ZM172.317 159.02H174.658V161.606H172.317V159.02ZM172.317 156.441H174.658V159.02H172.317V156.441ZM169.977 159.02H172.317V161.606H169.977V159.02ZM167.636 161.606H169.977V164.186H167.635L167.636 161.606ZM187.605 152.024H190.14V149.231H187.605V152.024ZM179.998 138.092H182.533V135.242H179.998V138.092ZM190.143 149.264H192.677V146.471H190.142L190.143 149.264ZM187.609 149.264H190.143V146.471H187.609V149.264ZM185.074 149.264H187.609V146.471H185.074V149.264ZM187.609 146.471H190.143V143.65H187.609V146.471ZM185.074 146.471H187.609V143.65H185.074V146.471ZM182.533 146.471H185.074V143.65H182.533V146.471ZM185.074 143.678H187.609V140.885H185.074V143.678ZM182.533 143.678H185.074V140.885H182.533V143.678ZM179.998 143.678H182.533V140.885H179.998V143.678ZM182.533 140.885H185.074V138.092H182.533V140.885ZM179.998 140.885H182.533V138.092H179.998V140.885ZM177.464 140.885H179.998V138.092H177.464V140.885ZM187.609 100.147H190.144V102.942H187.609V100.147ZM179.997 114.09H182.538V116.883H179.997V114.09ZM190.143 102.911H192.677V105.704H190.142L190.143 102.911ZM187.608 102.911H190.143V105.704H187.608V102.911ZM185.073 102.911H187.608V105.704H185.073V102.911ZM187.608 105.704H190.143V108.497H187.608V105.704ZM185.073 105.704H187.608V108.497H185.073V105.704ZM182.539 105.704H185.073V108.497H182.539V105.704ZM185.073 108.497H187.608V111.29H185.073V108.497ZM182.539 108.497H185.073V111.29H182.539V108.497ZM179.998 108.497H182.539V111.29H179.998V108.497ZM182.539 111.29H185.073V114.091H182.539V111.29ZM179.998 111.29H182.539V114.091H179.998V111.29ZM177.463 111.29H179.998V114.091H177.463V111.29ZM202.035 148.245V153.767L198.104 158.141L202.054 162.494V168.014L193.06 158.139L199.526 151.015L179.41 128.828L172.945 135.953L163.963 126.071H169.007L172.958 130.424L176.909 126.071H181.939L202.054 148.243L202.035 148.245ZM202.035 135.057V140.6L188.857 126.073H193.886L202.041 135.058L202.035 135.057ZM202.035 111.546V117.089L193.881 126.073H188.856L202.041 111.546H202.035ZM163.963 126.073L172.944 116.177L179.41 123.301L199.526 101.137L193.059 94.012L202.041 84.116V89.645L198.103 94.0125L202.054 98.3658V103.895L181.938 126.074H176.894L172.943 121.706L169.005 126.074L163.963 126.073ZM198.528 194.719V197.298H196.162V194.719H198.528ZM200.871 192.138V194.718H198.53V192.138H200.871ZM200.871 194.718V197.297H198.53V194.719L200.871 194.718ZM200.871 197.297V199.876H198.53V197.297H200.871ZM185.481 206.487H187.822V209.067H185.481V206.487ZM183.141 209.067H185.481V211.646H183.14L183.141 209.067ZM185.481 209.067H187.822V211.646H185.481V209.067ZM187.822 209.067H190.163V211.646H187.822V209.067ZM189.923 194.632H187.583V197.226H189.923V194.632ZM196.945 207.531H194.604V210.117H196.945V207.531ZM187.583 197.229H185.242V199.808H187.583V197.229ZM189.923 197.229H187.583V199.808H189.923V197.229ZM192.264 197.229H189.923V199.808H192.283L192.264 197.229ZM189.923 199.808H187.583V202.387H189.923V199.808ZM192.264 199.808H189.923V202.387H192.283L192.264 199.808ZM194.605 199.808H192.284V202.387H194.625L194.605 199.808ZM192.284 202.402H189.943V204.981H192.284V202.402ZM194.625 202.402H192.284V204.981H194.625V202.402ZM196.965 202.402H194.625V204.981H196.965V202.402ZM194.625 204.981H192.284V207.56H194.625V204.981ZM196.965 204.981H194.625V207.56H196.965V204.981ZM202.061 209.099V211.675H200.89V209.096L202.061 209.099ZM202.061 189.562V192.138H200.89V194.718H202.061V197.297H200.89V194.719H202.061V192.138H200.89V189.559L202.061 189.562ZM199.304 204.978H196.963V207.557H199.304V204.978ZM198.528 20.9358V23.513H196.161V20.9358H198.528ZM200.868 18.3566V20.9358H198.528V18.3566H200.868ZM200.868 20.9358V23.513H198.528V20.9358H200.868ZM200.868 23.515V26.0942H198.528V23.513L200.868 23.515ZM196.161 57.428V54.8488H198.502V57.428H196.161ZM198.502 60.0072V57.428H200.843V60.0072H198.502ZM198.502 57.428V54.8488H200.843V57.428H198.502ZM198.502 54.8488V52.2696H200.843V54.8488H198.502ZM185.481 43.0495H187.822V45.6287H185.481V43.0495ZM185.481 32.7331H187.822V35.3123H185.481V32.7331ZM183.14 35.3128L185.481 35.3123V37.892H183.14V35.3128ZM185.481 35.3123H187.822V37.892H185.481V35.3123ZM187.822 35.3123L190.162 35.3128V37.892H187.822V35.3123ZM180.8 37.892H183.14V40.4841H180.799L180.8 37.892ZM183.14 37.892H185.481L185.481 40.4841H183.14V37.892ZM185.481 37.892H187.822V40.4841H185.481L185.481 37.892ZM183.14 40.4841H185.481L185.481 43.0495H183.14V40.4841ZM185.481 40.4841H187.822V43.0495H185.481L185.481 40.4841ZM187.822 40.4841H190.162V43.0495H187.822V40.4841ZM198.529 37.9049H200.871V40.4841H198.53L198.529 37.9049ZM189.923 57.4552H187.582V54.8759H189.923V57.4552ZM196.945 44.5596H194.604V41.9814H196.945V44.5596ZM187.582 54.8759H185.241V52.2982H187.582V54.8759ZM189.923 54.8759H187.582V52.2982H189.923V54.8759ZM192.264 54.8759H189.923V52.2982H192.283L192.264 54.8759ZM189.923 52.2967H187.582V49.7461H189.923V52.2967ZM192.264 52.2967H189.923V49.7461H192.283L192.264 52.2967ZM194.604 52.2967H192.283V49.7461H194.624L194.604 52.2967ZM192.283 49.7461H189.943V47.1398H192.283V49.7461ZM194.624 49.7461H192.283V47.1398H194.624V49.7461ZM196.965 49.7461H194.624V47.1398H196.965V49.7461ZM194.624 47.1669H192.283V44.5606H194.624V47.1669ZM196.965 47.1669H194.624V44.5606H196.965V47.1669ZM199.306 47.1669H196.965V44.5606H199.304L199.306 47.1669ZM189.923 20.8785H187.582V23.4577H189.923V20.8785ZM196.945 33.7746H194.604V36.3607H196.945V33.7746ZM187.583 23.4577H185.242V26.037H187.583V23.4577ZM189.923 23.4577H187.583V26.037H189.923V23.4577ZM192.264 23.4577H189.923V26.037H192.283L192.264 23.4577ZM189.923 26.037H187.583V28.6162H189.923V26.037ZM192.264 26.037H189.923V28.6162H192.283L192.264 26.037ZM194.605 26.037H192.284V28.6162H194.625L194.605 26.037ZM192.284 28.6162H189.943V31.224H192.284V28.6162ZM194.625 28.6162H192.284V31.224H194.625V28.6162ZM196.965 28.6162H194.625V31.224H196.965V28.6162ZM194.605 31.224H192.284L192.284 33.8032H194.625L194.605 31.224ZM196.946 31.224H194.605V33.8032H196.946V31.224ZM202.041 60.0354V62.5716H200.871V60.0063L202.041 60.0354ZM202.041 57.4562V60.0067L200.871 60.0063V57.4275L202.041 57.4562ZM202.041 54.8769V57.4552H200.871V54.8473L202.041 54.8769ZM202.041 37.9202V40.4856H200.871V43.051H202.041V40.4841H200.871V37.892L202.041 37.9202ZM202.041 35.341V37.9187H200.871V35.3128L202.041 35.341ZM202.041 15.8045V18.3837H200.871V20.9629H202.041V23.5421H200.871V20.9358H202.041V18.3566H200.871V15.7773L202.041 15.8045ZM199.287 31.222H196.946V33.8012H199.287V31.222ZM119.671 107.839V110.418H117.331V107.839H119.671ZM129.034 107.839V110.418H126.693V107.839H129.034ZM126.693 105.259V107.839H124.352V105.26L126.693 105.259ZM126.693 107.839V110.418H124.352V107.839H126.693ZM126.693 110.418V112.997H124.352V110.421L126.693 110.418ZM124.352 102.683V105.26H122.011V102.681L124.352 102.683ZM124.352 105.262V107.842H122.011V105.26L124.352 105.262ZM124.352 107.842V110.421H122.011V107.842H124.352ZM122.011 105.262V107.842H119.67V105.26L122.011 105.262ZM122.011 107.842V110.421H119.67V107.842H122.011ZM122.011 110.421V113H119.67V110.421H122.011ZM126.692 144.333V141.754H129.033V144.333H126.692ZM117.33 144.333V141.754H119.67V144.333H117.33ZM119.67 146.912V144.333H122.011V146.912H119.67ZM119.67 144.333V141.754H122.011V144.333H119.67ZM119.67 141.754V139.175H122.011V141.754H119.67ZM122.011 149.491V146.912L124.352 146.912V149.491H122.011ZM122.011 146.912V144.333H124.352V146.912L122.011 146.912ZM122.011 144.333V141.754H124.352V144.333L122.011 144.333ZM124.352 146.912V144.333H126.693V146.912L124.352 146.912ZM124.352 144.333V141.754H126.693V144.333L124.352 144.333ZM124.352 141.754V139.174H126.693V141.754H124.352ZM139.741 122.217H137.4V119.638H139.741V122.217ZM139.741 132.533H137.4V129.954H139.741V132.533ZM142.082 129.954H139.741L139.741 127.404H142.082L142.082 129.954ZM139.741 129.954H137.4V127.404H139.741L139.741 129.954ZM137.4 129.954H135.06V127.404H137.4V129.954ZM144.435 127.404H142.095V124.826H144.435V127.404ZM142.095 127.404H139.754V124.826H142.095L142.095 127.404ZM139.754 127.404H137.413V124.826H139.754L139.754 127.404ZM142.095 124.824H139.754V122.245H142.095L142.095 124.824ZM139.754 124.824H137.413V122.245H139.754L139.754 124.824ZM137.413 124.824H135.059V122.245H137.4L137.413 124.824ZM106.635 129.985H108.976V132.564H106.635V129.985ZM106.635 119.668H108.976V122.248H106.635V119.668ZM104.294 122.248H106.635V124.827H104.281L104.294 122.248ZM106.635 122.248H108.976V124.827H106.635V122.248ZM108.976 122.248H111.316V124.827H108.976V122.248ZM101.954 124.827H104.293V127.406H101.952L101.954 124.827ZM104.295 124.827H106.635L106.635 127.406H104.282L104.295 124.827ZM106.635 124.827H108.976V127.406H106.635L106.635 124.827ZM104.282 127.406H106.622V129.985H104.281L104.282 127.406ZM106.622 127.406H108.963V129.985H106.622L106.622 127.406ZM108.963 127.406H111.304V129.985H108.963V127.406ZM119.671 124.827H122.012V127.406H119.671V124.827ZM122.012 124.827H124.352V127.406H122.011L122.012 124.827ZM124.352 124.827H126.693V127.406H124.352L124.352 124.827ZM122.012 122.248H124.352V124.827H122.011L122.012 122.248ZM122.012 127.406H124.352V129.985H122.011L122.012 127.406ZM135.306 144.391H137.647V141.812H135.306V144.391ZM128.271 131.465H130.612V128.886H128.271V131.465ZM137.634 141.782H139.974V139.202H137.646L137.634 141.782ZM135.293 141.782H137.634V139.202H135.293V141.782ZM132.952 141.782H135.293V139.202H132.952V141.782ZM135.293 139.202H137.634V136.623H135.293V139.202ZM132.952 139.202H135.293V136.623H132.952V139.202ZM130.611 139.202H132.952V136.623H130.611V139.202ZM132.952 136.623H135.293V134.044H132.952V136.623ZM130.611 136.623H132.952V134.044H130.611V136.623ZM128.271 136.623H130.611V134.044H128.271V136.623ZM130.611 134.044H132.952V131.465H130.611V134.044ZM128.271 134.044H130.611V131.465H128.271V134.044ZM125.93 134.044H128.271V131.465H125.942L125.93 134.044ZM135.292 107.783H137.633V110.362H135.292V107.783ZM128.271 120.678H130.611V123.267H128.271V120.678ZM137.633 110.362H139.974V112.941H137.646L137.633 110.362ZM135.292 110.362H137.633V112.941H135.292V110.362ZM132.952 110.362H135.292V112.941H132.952V110.362ZM135.292 112.941H137.633V115.522H135.292V112.941ZM132.952 112.941H135.292V115.522H132.952V112.941ZM130.611 112.941H132.952V115.522H130.611V112.941ZM132.952 115.52H135.292V118.1H132.952V115.52ZM130.611 115.52H132.952V118.1H130.611V115.52ZM128.27 115.52H130.611V118.1H128.27V115.52ZM130.611 118.1H132.952V120.679H130.611V118.1ZM128.27 118.1H130.611V120.679H128.27V118.1ZM125.929 118.1H128.27V120.679H125.942L125.929 118.1ZM111.058 144.361H108.717V141.782H111.058V144.361ZM118.08 131.465H115.739V128.886H118.08V131.465ZM108.717 141.783H106.376V139.202H108.717V141.783ZM111.058 141.783H108.717V139.202H111.058V141.783ZM113.398 141.783H111.058V139.202H113.398V141.783ZM111.058 139.204H108.717V136.625H111.058V139.204ZM113.398 139.204H111.058V136.625H113.398V139.204ZM115.739 139.204H113.398V136.625H115.739V139.204ZM113.398 136.625H111.058V134.046H113.398V136.625ZM115.739 136.625H113.398V134.046H115.739V136.625ZM118.08 136.625H115.739V134.046H118.08V136.625ZM115.739 134.046H113.398V131.466H115.739V134.046ZM118.08 134.046H115.739V131.466H118.08V134.046ZM120.421 134.046H118.08V131.466H120.421V134.046ZM111.058 107.784H108.717V110.363H111.058L111.058 107.784ZM118.08 120.68H115.739V123.267H118.08V120.68ZM108.717 110.363H106.376V112.943H108.717V110.363ZM111.058 110.363H108.717V112.943H111.058V110.363ZM113.398 110.363H111.058V112.943H113.398V110.363ZM111.058 112.943H108.717V115.522H111.058V112.943ZM113.398 112.943H111.058V115.522H113.398V112.943ZM115.739 112.943H113.398V115.522H115.739V112.943ZM113.398 115.522H111.058V118.101H113.398V115.522ZM115.739 115.522H113.398V118.101H115.739V115.522ZM118.08 115.522H115.739V118.101H118.08V115.522ZM115.739 118.101H113.398V120.68L115.739 120.68V118.101ZM118.08 118.101H115.739V120.68H118.08V118.101ZM120.421 118.101H118.08V120.68L120.421 120.68V118.101ZM137.62 187.008H135.085V189.8H137.62V187.008ZM145.224 200.979H142.689V203.772H145.224V200.979ZM135.085 189.8H132.551V192.593H135.085V189.8ZM137.62 189.8H135.085V192.593H137.62V189.8ZM140.154 189.8H137.62V192.593H140.154V189.8ZM137.62 192.593H135.085V195.386H137.62V192.593ZM140.154 192.593H137.62V195.386H140.154V192.593ZM142.689 192.593H140.154V195.386H142.689V192.593ZM140.154 195.386H137.62V198.179H140.154V195.386ZM142.689 195.386H140.154V198.179H142.689V195.386ZM145.224 195.386H142.689V198.179H145.224V195.386ZM142.689 198.179H140.154V200.979H142.689V198.179ZM145.224 198.179H142.689V200.979H145.224V198.179ZM147.758 198.179H145.224V200.979H147.758V198.179ZM108.743 187.008H111.278V189.8H108.743L108.743 187.008ZM101.114 200.981H103.701V203.774H101.114V200.981ZM111.253 189.802H113.785V192.595H111.251L111.253 189.802ZM108.718 189.802H111.253V192.595H108.746L108.718 189.802ZM106.184 189.802H108.718V192.595H106.184V189.802ZM108.718 192.595H111.253V195.388H108.746L108.718 192.595ZM106.184 192.595H108.718V195.388H106.184V192.595ZM103.649 192.595H106.184V195.388H103.701L103.649 192.595ZM106.184 195.388H108.718V198.181H106.184V195.388ZM103.649 195.388H106.184V198.181H103.701L103.649 195.388ZM101.114 195.388H103.701V198.181H101.114V195.388ZM103.649 198.181H106.184V200.981H103.701L103.649 198.181ZM101.114 198.181H103.701V200.981H101.114V198.181ZM98.5734 198.181H101.114V200.981H98.5734V198.181ZM111.233 211.583L123.157 198.438L136.341 212.965H131.309L123.156 203.979L115.002 212.963H109.971L111.233 211.583ZM123.182 176.566L119.219 180.904L123.169 185.258L127.12 180.904L123.182 176.566ZM85.1045 212.979L94.0848 203.083L100.551 210.207L120.666 188.044L114.2 180.919L123.181 171.023L132.149 180.905L125.684 188.029L145.799 210.195L152.264 203.07L161.246 212.965H156.216L152.285 208.626L148.315 212.965H143.291L123.182 190.814L103.053 212.965H98.0222L94.0848 208.626L90.121 212.965L85.1045 212.979ZM103.551 84.5087L103.888 84.9291C103.79 84.8008 103.7 84.6725 103.603 84.5517L103.551 84.5087ZM182.397 21.249L182.746 21.6694C182.637 21.5226 182.52 21.3823 182.397 21.249ZM174.638 65.3216L174.489 64.9866C174.534 65.0793 174.578 65.1716 174.631 65.2643L174.638 65.3216ZM160.121 98.2943H160.18H160.121ZM153.953 98.2943L154.697 98.9638C154.474 98.7094 154.23 98.4803 153.966 98.28L153.953 98.2943ZM183.128 213H180.787V211.71H183.128V213ZM185.468 213H183.128V211.71H185.468V213ZM187.809 213H185.468V211.71H187.809V213ZM200.858 213H198.517V211.71H200.858V213ZM202.028 213H200.857V211.71H202.028L202.028 213ZM97.9251 155.79V154.956H98.0594C98.0269 155.166 98.0074 155.377 98.0012 155.59C97.9922 155.646 97.9772 155.701 97.9564 155.754L97.9251 155.79Z" fill="white"/>
<path d="M96.6691 175.077V177.653H94.0672V175.075L96.6691 175.077ZM96.6691 177.654V180.232H94.0672V177.653L96.6691 177.654ZM91.4653 180.232V182.81H88.8633V180.232H91.4653ZM94.0672 180.232V182.81H91.4653V180.232H94.0672ZM96.6691 180.232V182.81H94.0672V180.232H96.6691ZM94.0672 177.654V180.232H91.4653V177.653L94.0672 177.654ZM91.4653 175.077V177.653H88.8633V175.075L91.4653 175.077ZM70.2917 164.019V161.441H72.8936V164.019H70.2917ZM70.2917 161.441V158.864H72.8936V161.441H70.2917ZM75.4955 158.864V156.286H78.1044V158.864H75.4955ZM72.8936 158.864V156.286H75.4666V158.864H72.8936ZM70.2917 158.864V156.286H72.8936V158.864H70.2917ZM72.8936 161.441V158.864H75.4666V161.441H72.8936ZM75.4955 164.019V161.441H78.1044V164.019H75.4955ZM96.6691 164.019V161.441H94.0672V164.019H96.6691ZM96.6691 161.441V158.864H94.0672V161.441H96.6691ZM91.4653 158.864V156.286H88.8633V158.864H91.4653ZM94.0672 158.864V156.286H91.4653V158.864H94.0672ZM96.6691 158.864V156.286H94.0672V158.864H96.6691ZM94.0672 161.441V158.864H91.4653V161.441H94.0672ZM91.4653 164.019V161.441H88.8633V164.019H91.4653ZM70.2917 175.077V177.653H72.8936V175.075L70.2917 175.077ZM70.2917 177.654V180.232H72.8936V177.653L70.2917 177.654ZM75.4955 180.232V182.81H78.1044V180.232H75.4955ZM72.8936 180.232V182.81H75.4666V180.232H72.8936ZM70.2917 180.232V182.81H72.8936V180.232H70.2917ZM72.8936 177.654V180.232H75.4666V177.653L72.8936 177.654ZM75.4955 175.077V177.653H78.1044V175.075L75.4955 175.077ZM101.126 197.067V199.858H103.944V197.065L101.126 197.067ZM115.221 188.694V191.485H118.038V188.694H115.221ZM103.944 199.858V202.649H106.761V199.858H103.944ZM103.944 197.067V199.858H106.761V197.065L103.944 197.067ZM103.944 194.276V197.067H106.761V194.276H103.944ZM106.761 197.067V199.858H109.579V197.065L106.761 197.067ZM106.761 194.276V197.067H109.579V194.276H106.761ZM106.761 191.485V194.276H109.579V191.485H106.761ZM109.579 194.276V197.067H112.403V194.276H109.579ZM109.579 191.485V194.276H112.403V191.485H109.579ZM109.579 188.694V191.485H112.403V188.694H109.579ZM112.403 191.485V194.276H115.22V191.485H112.403ZM112.403 188.694V191.485H115.22V188.694H112.403ZM112.403 185.895V188.694H115.22V185.895L112.403 185.895ZM21.2457 209.098H23.8476V206.492H21.2457V209.098ZM18.6438 211.674H21.2457V209.096H18.6438V211.674ZM21.2457 211.674H23.8476V209.096H21.2457V211.674ZM23.8476 211.674H26.4495V209.096H23.8476V211.674ZM58.0591 206.49H55.4572V209.068H58.0591V206.49ZM60.661 209.068H58.0591V211.646H60.661V209.068ZM58.0591 209.068H55.4572V211.646H58.0591V209.068ZM55.4572 209.068H52.8543V211.646H55.4562L55.4572 209.068ZM43.555 194.729V197.307H46.1569V194.729H43.555ZM33.1479 194.729V197.307H35.7498V194.729H33.1479ZM35.7498 192.151V194.729H38.3517V192.151H35.7498ZM35.7498 194.729V197.307H38.3517V194.729H35.7498ZM35.7498 197.307V199.884H38.3517V197.307H35.7498ZM38.3517 189.574V192.152H40.968V189.574H38.3517ZM38.3517 192.152V194.729L40.968 194.73V192.152H38.3517ZM38.3517 194.729V197.307L40.968 197.307V194.73L38.3517 194.729ZM40.968 192.152V194.73H43.556V192.152H40.968ZM40.968 194.73V197.307H43.556V194.73H40.968ZM40.968 197.307V199.885H43.556V197.307H40.968ZM38.3661 209.099V211.674H40.968V209.096L38.3661 209.099ZM58.1024 199.622V197.044H55.486V199.622H58.1024ZM45.0929 207.354V204.776H42.477V207.354H45.0929ZM55.4855 197.043V194.466H52.8841V197.044L55.4855 197.043ZM55.4855 199.621V197.043L52.8841 197.044V199.621H55.4855ZM55.4855 202.199V199.621H52.8841V202.22L55.4855 202.199ZM52.8841 199.621L52.8836 197.043H50.3106V199.621H52.8841ZM52.8836 202.199L52.8841 199.621H50.3106V202.22L52.8836 202.199ZM52.8836 204.777L52.8841 202.22H50.3106V204.798L52.8836 204.777ZM50.3106 202.22V199.643H47.6783V202.221L50.3106 202.22ZM50.3106 204.798V202.22H47.6783V204.798H50.3106ZM50.3106 207.375V204.798H47.6783V207.375H50.3106ZM47.7087 204.798V202.22H45.0784V204.798H47.7087ZM47.7087 207.375V204.798H45.0784V207.375H47.7087ZM47.7087 209.953V207.375H45.0784V209.953H47.7087ZM21.188 199.621V197.043H23.7894V199.621H21.188ZM34.204 207.353V204.776H36.8059V207.354L34.204 207.353ZM23.7894 197.043V194.466H26.3913V197.044L23.7894 197.043ZM23.7894 199.621V197.043L26.3913 197.044V199.621H23.7894ZM23.7894 202.199V199.621H26.3913V202.22L23.7894 202.199ZM26.3913 199.621V197.044L28.9932 197.043V199.621H26.3913ZM26.3913 202.199V199.621H28.9932V202.22L26.3913 202.199ZM26.3913 204.777V202.22H28.9932V204.798L26.3913 204.777ZM28.9932 202.22V199.643H31.624V202.221L28.9932 202.22ZM28.9932 204.798V202.22H31.624V204.798H28.9932ZM28.9932 207.375V204.798H31.624V207.375H28.9932ZM31.624 204.777V202.22H34.2328V204.798L31.624 204.777ZM31.624 207.354V204.776H34.2328V207.354L31.624 207.354ZM60.6888 212.965H63.2474V211.674H60.6595L60.6888 212.965ZM58.0869 212.965H60.66L60.6595 211.674H58.0581L58.0869 212.965ZM55.485 212.965H58.0869V211.674H55.4572L55.485 212.965ZM38.3791 212.965H40.967V211.674H43.555V212.963H40.967V211.674H38.3512L38.3791 212.965ZM35.7772 212.965H38.3791V211.674H35.7498L35.7772 212.965ZM16.0688 212.965H18.6707V211.674H21.2726V212.963H23.8745V211.674H21.2457V212.963H18.6438V211.674H16.0419L16.0688 212.965ZM31.622 209.932V207.354H34.2309V209.932H31.622ZM126.05 146.936V144.358H123.449V146.936H126.05ZM91.4747 191.717L74.6778 208.351L67.7187 201.458V191.717H91.4747ZM99.3018 183.956V185.189H67.6898V153.908H99.271L99.3018 183.956ZM115.717 153.908L122.675 160.793L105.885 177.434V153.937L115.717 153.908ZM114.086 142.7H111.482V144.63H114.084L114.086 142.7ZM127.308 149.529V146.951H126.022V144.372H127.308V142.713H126.022V144.372H123.42V142.713H120.818V144.372H123.42V142.713H126.022V144.372H127.308V146.949H126.022V149.527L127.308 149.529ZM127.308 190.827V185.273L122.902 180.922L127.294 176.572V171.032L125.9 172.413L118.713 179.533L117.311 180.956L118.712 182.337L124.498 188.076L102.152 210.192L96.3585 204.46L94.965 203.072L93.565 204.463L86.3779 211.583L84.9844 212.964H90.5615L94.953 208.613L99.3446 212.964H104.936L127.308 190.827ZM127.308 204V198.446L125.915 199.835L114.056 211.583L112.654 212.964H118.245L127.308 204ZM127.308 156.193L118.424 147.392H105.861V142.714H99.271V147.392H75.5527L80.2748 142.714H70.9312L59.6542 153.906H61.0915V185.186H51.2666L44.3095 178.294C39.5815 173.61 39.7168 173.616 39.6521 173.68C39.5874 173.744 39.5805 173.609 34.9948 178.294L28.0302 185.188H11.6145V201.459L0 212.965H9.34356L18.2342 204.164V191.717H30.7689L39.6526 182.909L48.5363 191.717H61.0925V204.164L69.9762 212.965H79.3197L127.324 165.408L127.308 156.193Z" fill="white"/>
<path d="M96.6701 175.077V177.655H94.0702V175.077H96.6701ZM96.6701 177.655V180.233H94.0702V177.655H96.6701ZM91.4663 180.233V182.811H88.8644V180.233H91.4663ZM94.0682 180.233V182.811H91.4663V180.233H94.0682ZM96.6701 180.233V182.811H94.0702V180.233H96.6701ZM94.0682 177.655V180.233H91.4663V177.655H94.0682ZM91.4663 175.077V177.655H88.8644V175.077H91.4663ZM70.2927 164.02V161.442H72.8946V164.02H70.2927ZM70.2927 161.442V158.864H72.8946V161.441L70.2927 161.442ZM75.4965 158.864V156.287H78.1054V158.864L75.4965 158.864ZM72.8946 158.864V156.287H75.4677V158.864L72.8946 158.864ZM70.2927 158.864V156.287H72.8946V158.864L70.2927 158.864ZM72.8946 161.442V158.864H75.4677V161.441L72.8946 161.442ZM75.4965 164.02V161.442H78.1054V164.02H75.4965ZM96.6701 164.02V161.442H94.0702V164.02H96.6701ZM96.6701 161.442V158.864H94.0702V161.441L96.6701 161.442ZM91.4663 158.864V156.286H88.8644V158.864H91.4663ZM94.0682 158.864V156.286H91.4663V158.864H94.0682ZM96.6701 158.864V156.286H94.0702V158.864H96.6701ZM94.0682 161.441V158.864H91.4663V161.441H94.0682ZM91.4663 164.019V161.441H88.8644V164.019H91.4663ZM70.2927 175.077V177.655H72.8946V175.077H70.2927ZM70.2927 177.655V180.232H72.8946V177.655H70.2927ZM75.4965 180.232V182.81H78.1054V180.232H75.4965ZM72.8946 180.232V182.81H75.4677V180.232H72.8946ZM70.2927 180.232V182.81H72.8946V180.232H70.2927ZM72.8946 177.655V180.232H75.4677V177.655H72.8946ZM75.4965 175.077V177.655H78.1054V175.077H75.4965ZM101.127 197.067V199.858H103.945V197.067H101.127ZM115.222 188.694V191.485H118.039V188.694H115.222ZM103.943 199.856V202.647H106.761V199.856H103.943ZM103.943 197.065V199.856H106.761V197.065H103.943ZM103.943 194.274V197.065H106.761V194.274H103.943ZM106.761 197.065V199.856H109.578V197.065H106.761ZM106.761 194.274V197.065H109.578V194.274H106.761ZM106.761 191.483V194.274H109.578V191.483H106.761ZM109.578 194.274V197.065H112.402V194.274H109.578ZM109.578 191.483V194.274H112.402V191.483H109.578ZM109.578 188.692V191.483H112.402V188.694L109.578 188.692ZM112.402 191.483V194.274H115.222V191.483H112.402ZM112.402 188.692V191.483H115.222V188.694L112.402 188.692ZM112.402 185.894V188.694H115.222V185.893L112.402 185.894ZM21.2468 209.099H23.8467V206.493H21.2468V209.099ZM18.6449 211.677H21.2468V209.099H18.6449V211.677ZM21.2468 211.677H23.8467V209.099H21.2468V211.677ZM23.8487 211.677H26.4506V209.099H23.8467L23.8487 211.677ZM58.0596 206.493H55.4577V209.071H58.0596V206.493ZM60.6615 209.071H58.0596V211.648H60.6615V209.071ZM58.0596 209.071H55.4577V211.648H58.0596V209.071ZM55.4577 209.071H52.8563V211.648H55.4577V209.071ZM43.5551 194.73V197.307H46.157V194.73H43.5551ZM33.1479 194.73V197.307H35.7498V194.73H33.1479ZM35.7498 192.152V194.73H38.3517V192.152H35.7498ZM35.7498 194.73V197.307H38.3517V194.73H35.7498ZM35.7498 197.307V199.886H38.3517V197.307H35.7498ZM38.3517 189.575V192.152H40.9671V189.575H38.3517ZM38.3517 192.152V194.73H40.9671V192.152H38.3517ZM38.3517 194.73V197.307L40.9671 197.308V194.73H38.3517ZM40.9681 192.152V194.73H43.556V192.152H40.9681ZM40.9681 194.73V197.308H43.556V194.73H40.9681ZM40.9681 197.308V199.886H43.556V197.308H40.9681ZM38.3662 209.099V211.677H40.9671V209.099H38.3662ZM58.1024 199.622V197.045H55.4861V199.622H58.1024ZM45.0939 207.354V204.777H42.4776V207.354H45.0939ZM55.4866 197.044V194.466H52.8852V197.044H55.4866ZM55.4866 199.622V197.044H52.8852V199.622H55.4866ZM55.4866 202.199V199.622H52.8852V202.221L55.4866 202.199ZM52.8852 199.622V197.044H50.3116V199.622H52.8852ZM52.8847 202.199L52.8852 199.622H50.3116V202.221L52.8847 202.199ZM52.8847 204.777L52.8852 202.221H50.3116V204.798L52.8847 204.777ZM50.3116 202.221V199.643H47.6814V202.221H50.3116ZM50.3116 204.798V202.221H47.6814V204.798H50.3116ZM50.3116 207.376V204.798H47.6814V207.376H50.3116ZM47.7097 204.798V202.221H45.0795V204.798H47.7097ZM47.7097 207.376V204.798H45.0795V207.376H47.7097ZM47.7097 209.954V207.376H45.0795V209.953L47.7097 209.954ZM21.189 199.621V197.044H23.7909V199.621H21.189ZM34.205 207.354V204.776H36.8069V207.354H34.205ZM23.7909 197.044V194.466H26.3928V197.044L23.7909 197.044ZM23.7909 199.622V197.044L26.3928 197.044V199.622H23.7909ZM23.7909 202.199V199.622H26.3928V202.221L23.7909 202.199ZM26.3928 199.622V197.044H28.9948V199.622H26.3928ZM26.3928 202.199V199.622H28.9948V202.221L26.3928 202.199ZM26.3928 204.777V202.221H28.9948V204.798L26.3928 204.777ZM28.9948 202.221V199.643H31.6255V202.221H28.9948ZM28.9948 204.798V202.221H31.6255V204.798H28.9948ZM28.9948 207.376V204.798H31.6255V207.376H28.9948ZM31.6255 204.777V202.221H34.2344V204.798L31.6255 204.777ZM31.6255 207.355V204.777H34.2344V207.355H31.6255ZM60.6904 212.966H63.249V211.677H60.661L60.6904 212.966ZM58.0885 212.966H60.6615L60.661 211.677H58.0596L58.0885 212.966ZM55.4866 212.966H58.0875V211.677H55.4567L55.4866 212.966ZM38.3806 212.966H40.9686V211.677H43.5565V212.966H40.9671V211.677H38.3522L38.3806 212.966ZM35.7787 212.966H38.3791V211.677H35.7503L35.7787 212.966ZM16.0703 212.966H18.6722V211.677H21.2741V212.966H23.876V211.677H21.2468V212.966H18.6449V211.677H16.043L16.0703 212.966ZM31.6235 209.933V207.355H34.2324V209.933H31.6235ZM126.051 146.938V144.36H123.45V146.938H126.051ZM21.5628 191.333L21.9868 191.718C21.8387 191.597 21.6972 191.469 21.5628 191.333ZM66.0231 182.789L65.6852 182.625L65.9654 182.782L66.0231 182.789ZM99.2859 166.802V166.866V166.802ZM99.2859 160.009L99.9613 160.828C99.703 160.585 99.4718 160.315 99.2715 160.023L99.2859 160.009ZM114.077 142.687H111.475V144.614H114.077V142.687ZM127.309 149.529V146.951H126.022V144.374H127.308V142.715H126.022V144.374H123.42V142.715H120.818V144.374H123.42V142.715H126.022V144.374H127.308V146.951H126.022V149.529H127.309ZM127.309 190.828V185.274L122.903 180.923L127.295 176.572V171.033L117.312 180.923L124.499 188.043L102.153 210.195L94.966 203.075L84.9829 212.965H90.5605L94.9521 208.615L99.3437 212.965H104.935L127.309 190.828ZM127.309 204.001V198.447L112.654 212.965H118.246L127.309 204.001Z" fill="white"/>
</svg>
