<svg width="41" height="42" viewBox="0 0 41 42" fill="none" xmlns="http://www.w3.org/2000/svg">
<path fill-rule="evenodd" clip-rule="evenodd" d="M0 20.4167V12.25C0 6.47529 0 3.58794 1.79397 1.79397C3.58794 0 6.47529 0 12.25 0H28.5833C34.358 0 37.2454 0 39.0394 1.79397C40.8333 3.58794 40.8333 6.47529 40.8333 12.25V20.4167C40.8333 26.1914 40.8333 29.0787 39.0394 30.8727C37.7197 32.1924 35.8083 32.5413 32.5911 32.6335C32.5836 31.1312 32.0617 29.631 31.0254 28.415C30.9668 28.3462 30.9314 28.2607 30.9242 28.1706C30.6682 24.9622 28.1204 22.4144 24.9119 22.1584C24.8219 22.1512 24.7364 22.1158 24.6676 22.0572C22.2178 19.9695 18.6148 19.9695 16.165 22.0572C16.0962 22.1158 16.0107 22.1512 15.9206 22.1584C12.7122 22.4144 10.1644 24.9622 9.9084 28.1706C9.90121 28.2607 9.86579 28.3462 9.80718 28.415C8.77089 29.631 8.24901 31.1312 8.24152 32.6335C5.02475 32.5412 3.11357 32.1923 1.79397 30.8727C0 29.0787 0 26.1914 0 20.4167ZM12.7604 8.16667C12.7604 7.32098 13.446 6.63542 14.2917 6.63542H26.5417C27.3874 6.63542 28.0729 7.32098 28.0729 8.16667C28.0729 9.01235 27.3874 9.69792 26.5417 9.69792H14.2917C13.446 9.69792 12.7604 9.01235 12.7604 8.16667ZM10.2083 13.7812C9.36265 13.7812 8.67708 14.4668 8.67708 15.3125C8.67708 16.1582 9.36265 16.8437 10.2083 16.8437H30.625C31.4707 16.8437 32.1562 16.1582 32.1562 15.3125C32.1562 14.4668 31.4707 13.7812 30.625 13.7812H10.2083Z" fill="#8CCDFF"/>
<path fill-rule="evenodd" clip-rule="evenodd" d="M22.6812 24.3881C21.3761 23.2759 19.4565 23.2759 18.1514 24.3881C17.5921 24.8647 16.8967 25.1527 16.1643 25.2112C14.4549 25.3476 13.0976 26.7049 12.9612 28.4143C12.9027 29.1467 12.6147 29.8421 12.1381 30.4014C11.0259 31.7065 11.0259 33.6261 12.1381 34.9312C12.6147 35.4905 12.9027 36.1858 12.9612 36.9183C13.0976 38.6276 14.4549 39.985 16.1643 40.1214C16.8967 40.1798 17.5921 40.4679 18.1514 40.9445C19.4565 42.0567 21.3761 42.0567 22.6812 40.9445C23.2405 40.4679 23.9358 40.1798 24.6683 40.1214C26.3776 39.985 27.735 38.6276 27.8714 36.9183C27.9298 36.1858 28.2179 35.4905 28.6945 34.9312C29.8067 33.6261 29.8067 31.7065 28.6945 30.4014C28.2179 29.8421 27.9298 29.1467 27.8714 28.4143C27.735 26.7049 26.3776 25.3476 24.6683 25.2112C23.9358 25.1527 23.2405 24.8647 22.6812 24.3881ZM24.524 31.7444C25.1422 31.1674 25.1756 30.1984 24.5986 29.5802C24.0216 28.962 23.0526 28.9285 22.4344 29.5056L19.1042 32.6138L18.399 31.9556C17.7807 31.3785 16.8118 31.412 16.2347 32.0302C15.6577 32.6484 15.6911 33.6174 16.3094 34.1944L18.0594 35.8278C18.6477 36.3769 19.5607 36.3769 20.149 35.8278L24.524 31.7444Z" fill="#8CCDFF"/>
</svg>
