<svg width="31" height="28" viewBox="0 0 31 28" fill="none" xmlns="http://www.w3.org/2000/svg">
<path d="M26.6 16.45C26.6 15.8701 26.1299 15.4 25.55 15.4H21.35C20.7701 15.4 20.3 15.8701 20.3 16.45V25.9H18.2V3.15C18.2 2.13037 18.1978 1.47127 18.1325 0.985639C18.0712 0.530213 17.9724 0.387468 17.8925 0.307538C17.8125 0.227607 17.6698 0.128752 17.2144 0.0675214C16.7287 0.00222994 16.0696 0 15.05 0C14.0304 0 13.3713 0.00222994 12.8856 0.0675214C12.4302 0.128752 12.2875 0.227608 12.2075 0.307538C12.1276 0.387468 12.0288 0.530213 11.9675 0.985639C11.9022 1.47127 11.9 2.13037 11.9 3.15V25.9H9.8V9.45C9.8 8.8701 9.3299 8.4 8.75 8.4H4.55C3.9701 8.4 3.5 8.8701 3.5 9.45V25.9H1.4H1.05C0.470101 25.9 0 26.3701 0 26.95C0 27.5299 0.470101 28 1.05 28H29.05C29.6299 28 30.1 27.5299 30.1 26.95C30.1 26.3701 29.6299 25.9 29.05 25.9H28.7H26.6V16.45Z" fill="#A7D0FF"/>
</svg>
