<svg width="16" height="19" viewBox="0 0 16 19" fill="none" xmlns="http://www.w3.org/2000/svg">
<path fill-rule="evenodd" clip-rule="evenodd" d="M5.02532 14.7725C5.38125 14.7725 5.66979 15.061 5.66979 15.4169C5.66979 15.5658 5.70748 15.7196 5.7891 15.8713C5.87132 16.0242 5.99848 16.1752 6.17348 16.31C6.34861 16.4448 6.56472 16.5579 6.81228 16.6369C7.05975 16.7158 7.32871 16.7575 7.60282 16.7575C7.87693 16.7575 8.14589 16.7158 8.39328 16.6369C8.64092 16.5579 8.85703 16.4448 9.03216 16.31C9.20711 16.1752 9.33428 16.0242 9.41652 15.8713C9.49815 15.7196 9.53587 15.5658 9.53587 15.4169C9.53587 15.061 9.82442 14.7725 10.1803 14.7725C10.5363 14.7725 10.8248 15.061 10.8248 15.4169C10.8248 15.7894 10.7292 16.1519 10.5517 16.4818C10.3749 16.8106 10.1223 17.0973 9.81857 17.3312C9.51507 17.565 9.16285 17.7443 8.78503 17.8649C8.40703 17.9854 8.00565 18.0464 7.60282 18.0464C7.19999 18.0464 6.79862 17.9854 6.42062 17.8649C6.04275 17.7443 5.69057 17.565 5.38701 17.3312C5.08333 17.0973 4.83079 16.8106 4.65394 16.4818C4.4765 16.1519 4.38086 15.7894 4.38086 15.4169C4.38086 15.061 4.66939 14.7725 5.02532 14.7725Z" fill="#F0F0F0"/>
<path fill-rule="evenodd" clip-rule="evenodd" d="M4.52519 0.748357C6.16024 -0.0653267 8.03202 -0.216587 9.75781 0.300016C10.0988 0.40209 10.2925 0.761254 10.1904 1.10223C10.0883 1.44321 9.72911 1.63688 9.38815 1.5348C7.97368 1.11139 6.43951 1.23542 5.09943 1.90229C3.60761 2.64468 2.6645 4.16745 2.6645 5.83378V6.96914C2.6645 8.19256 2.35965 9.39668 1.7775 10.4727L1.58296 10.8323C0.801985 12.2758 1.65581 14.0613 3.2697 14.3596C6.13532 14.8892 9.07382 14.8892 11.9395 14.3596L12.0771 14.3341C13.6908 14.0359 14.5897 12.2959 13.8994 10.8072L13.672 10.3168C13.3383 9.59707 13.1213 8.83084 13.0275 8.04683C12.9852 7.69341 13.2374 7.37263 13.5908 7.33036C13.9443 7.28808 14.265 7.54028 14.3073 7.8937C14.3851 8.54332 14.5648 9.17825 14.8413 9.77451L15.0687 10.265C16.1133 12.5174 14.7529 15.1504 12.3114 15.6016L12.1738 15.627C9.15322 16.1854 6.05595 16.1854 3.03542 15.627C0.560998 15.1697 -0.748081 12.4321 0.4493 10.2189L0.643851 9.85932C1.12408 8.97168 1.37557 7.97834 1.37557 6.96914V5.83378C1.37557 3.67836 2.5955 1.70863 4.52519 0.748357Z" fill="#F4F4F4"/>
<path fill-rule="evenodd" clip-rule="evenodd" d="M12.8669 2.27623C12.0364 2.27623 11.3631 2.94948 11.3631 3.77998C11.3631 4.61048 12.0364 5.28373 12.8669 5.28373C13.6974 5.28373 14.3706 4.61048 14.3706 3.77998C14.3706 2.94948 13.6974 2.27623 12.8669 2.27623ZM10.0742 3.77998C10.0742 2.23763 11.3246 0.987305 12.8669 0.987305C14.4093 0.987305 15.6596 2.23763 15.6596 3.77998C15.6596 5.32233 14.4093 6.57266 12.8669 6.57266C11.3246 6.57266 10.0742 5.32233 10.0742 3.77998Z" fill="#0AA67A"/>
</svg>
