<svg width="34" height="32" viewBox="0 0 34 32" fill="none" xmlns="http://www.w3.org/2000/svg">
<path fill-rule="evenodd" clip-rule="evenodd" d="M31.1788 10.0241C31.1788 7.85818 31.1788 6.77522 30.6599 5.99728C30.4352 5.6605 30.1465 5.37134 29.8103 5.14631C29.1309 4.69165 28.2186 4.63467 26.5535 4.62753C26.5599 5.07691 26.5598 5.54649 26.5598 6.03067L26.5597 6.16867V8.09638H28.0994C28.7372 8.09638 29.2542 8.61422 29.2542 9.25301C29.2542 9.8918 28.7372 10.4096 28.0994 10.4096H26.5597V12.7229H28.0994C28.7372 12.7229 29.2542 13.2407 29.2542 13.8795C29.2542 14.5183 28.7372 15.0361 28.0994 15.0361H26.5597V17.3494H28.0994C28.7372 17.3494 29.2542 17.8672 29.2542 18.506C29.2542 19.1448 28.7372 19.6626 28.0994 19.6626H26.5597V29.6867H24.2502V6.16867C24.2502 3.26073 24.2502 1.80676 23.3483 0.903382C22.4463 0 20.9947 0 18.0914 0H15.012C12.1088 0 10.6571 0 9.75518 0.903382C8.85325 1.80676 8.85325 3.26073 8.85325 6.16867V29.6867H6.5437V19.6626H5.00401C4.36625 19.6626 3.84924 19.1448 3.84924 18.506C3.84924 17.8672 4.36625 17.3494 5.00401 17.3494H6.5437V15.0361H5.00401C4.36625 15.0361 3.84924 14.5183 3.84924 13.8795C3.84924 13.2407 4.36625 12.7229 5.00401 12.7229H6.5437V10.4096H5.00401C4.36625 10.4096 3.84924 9.8918 3.84924 9.25301C3.84924 8.61422 4.36625 8.09638 5.00401 8.09638H6.5437V6.16867L6.54369 6.03065C6.54364 5.54648 6.54358 5.07691 6.54991 4.62753C4.88487 4.63467 3.97254 4.69165 3.29319 5.14631C2.95695 5.37134 2.66826 5.6605 2.44359 5.99728C1.92462 6.77522 1.92462 7.85818 1.92462 10.0241V29.6867H1.15477C0.517009 29.6867 0 30.2046 0 30.8434C0 31.4822 0.517009 32 1.15477 32H31.9487C32.5864 32 33.1034 31.4822 33.1034 30.8434C33.1034 30.2046 32.5864 29.6867 31.9487 29.6867H31.1788V10.0241ZM12.3176 15.0361C12.3176 14.3974 12.8346 13.8795 13.4723 13.8795H19.6311C20.2689 13.8795 20.7859 14.3974 20.7859 15.0361C20.7859 15.6749 20.2689 16.1928 19.6311 16.1928H13.4723C12.8346 16.1928 12.3176 15.6749 12.3176 15.0361ZM12.3176 19.6626C12.3176 19.0239 12.8346 18.506 13.4723 18.506H19.6311C20.2689 18.506 20.7859 19.0239 20.7859 19.6626C20.7859 20.3014 20.2689 20.8193 19.6311 20.8193H13.4723C12.8346 20.8193 12.3176 20.3014 12.3176 19.6626ZM16.5517 25.0602C17.1895 25.0602 17.7065 25.5781 17.7065 26.2169V29.6867H15.397V26.2169C15.397 25.5781 15.914 25.0602 16.5517 25.0602ZM12.3176 6.55422C12.3176 5.91543 12.8346 5.39759 13.4723 5.39759H19.6311C20.2689 5.39759 20.7859 5.91543 20.7859 6.55422C20.7859 7.193 20.2689 7.71084 19.6311 7.71084H13.4723C12.8346 7.71084 12.3176 7.193 12.3176 6.55422ZM12.3176 11.1807C12.3176 10.5419 12.8346 10.0241 13.4723 10.0241H19.6311C20.2689 10.0241 20.7859 10.5419 20.7859 11.1807C20.7859 11.8195 20.2689 12.3373 19.6311 12.3373H13.4723C12.8346 12.3373 12.3176 11.8195 12.3176 11.1807Z" fill="url(#paint0_linear_3092_318)"/>
<defs>
<linearGradient id="paint0_linear_3092_318" x1="8.5" y1="2.5" x2="31" y2="32" gradientUnits="userSpaceOnUse">
<stop stop-color="#2D86CA"/>
<stop offset="1" stop-color="#39A38D"/>
</linearGradient>
</defs>
</svg>
