<svg width="28" height="28" viewBox="0 0 28 28" fill="none" xmlns="http://www.w3.org/2000/svg">
<path d="M12.8581 23.1441C12.8581 23.3715 12.7677 23.5895 12.607 23.7503C12.4462 23.911 12.2282 24.0013 12.0009 24.0013H5.14333C4.91598 24.0013 4.69795 23.911 4.5372 23.7503C4.37644 23.5895 4.28613 23.3715 4.28613 23.1441V4.2859C4.28613 4.05856 4.37644 3.84053 4.5372 3.67978C4.69795 3.51902 4.91598 3.42871 5.14333 3.42871H12.0009C12.2282 3.42871 12.4462 3.51902 12.607 3.67978C12.7677 3.84053 12.8581 4.05856 12.8581 4.2859C12.8581 4.51325 12.7677 4.73128 12.607 4.89203C12.4462 5.05279 12.2282 5.1431 12.0009 5.1431H6.00052V22.287H12.0009C12.2282 22.287 12.4462 22.3773 12.607 22.538C12.7677 22.6988 12.8581 22.9168 12.8581 23.1441ZM24.608 13.1086L20.3221 8.8226C20.1612 8.66175 19.9431 8.57139 19.7156 8.57139C19.4881 8.57139 19.27 8.66175 19.1091 8.8226C18.9483 8.98344 18.8579 9.20159 18.8579 9.42906C18.8579 9.65653 18.9483 9.87468 19.1091 10.0355L21.9325 12.8578H12.0009C11.7735 12.8578 11.5555 12.9481 11.3947 13.1089C11.234 13.2697 11.1437 13.4877 11.1437 13.715C11.1437 13.9424 11.234 14.1604 11.3947 14.3212C11.5555 14.4819 11.7735 14.5722 12.0009 14.5722H21.9325L19.1091 17.3945C18.9483 17.5554 18.8579 17.7735 18.8579 18.001C18.8579 18.2285 18.9483 18.4466 19.1091 18.6075C19.27 18.7683 19.4881 18.8587 19.7156 18.8587C19.9431 18.8587 20.1612 18.7683 20.3221 18.6075L24.608 14.3215C24.6877 14.2419 24.751 14.1473 24.7941 14.0433C24.8372 13.9392 24.8594 13.8277 24.8594 13.715C24.8594 13.6024 24.8372 13.4908 24.7941 13.3868C24.751 13.2827 24.6877 13.1882 24.608 13.1086Z" fill="#E41E1E"/>
</svg>
