<svg width="41" height="41" viewBox="0 0 41 41" fill="none" xmlns="http://www.w3.org/2000/svg">
<path fill-rule="evenodd" clip-rule="evenodd" d="M0 20.4167V12.25C0 6.4753 0 3.58794 1.79397 1.79397C3.58794 0 6.47529 0 12.25 0H28.5833C34.358 0 37.2454 0 39.0394 1.79397C40.8333 3.58794 40.8333 6.47529 40.8333 12.25V20.4167C40.8333 26.1914 40.8333 29.0787 39.0394 30.8727C38.0669 31.8452 36.773 32.2905 34.8721 32.4944C34.721 32.2905 34.578 32.1298 34.476 32.0176C34.2389 31.7568 33.9382 31.4604 33.6467 31.173L30.5985 28.1672L29.4728 27.0269C28.733 22.6934 24.9604 19.3958 20.4168 19.3958C15.8732 19.3958 12.1006 22.6934 11.3608 27.0269L10.2351 28.1672L7.18707 31.1728C6.8955 31.4603 6.59476 31.7568 6.35758 32.0176C6.25556 32.1298 6.11254 32.2905 5.96146 32.4945C4.0604 32.2906 2.76652 31.8452 1.79397 30.8727C0 29.0787 0 26.1914 0 20.4167ZM14.2917 6.63542C13.446 6.63542 12.7604 7.32098 12.7604 8.16667C12.7604 9.01235 13.446 9.69792 14.2917 9.69792H26.5417C27.3874 9.69792 28.0729 9.01235 28.0729 8.16667C28.0729 7.32098 27.3874 6.63542 26.5417 6.63542H14.2917ZM8.67708 15.3125C8.67708 14.4668 9.36265 13.7813 10.2083 13.7813H30.625C31.4707 13.7813 32.1562 14.4668 32.1562 15.3125C32.1562 16.1582 31.4707 16.8438 30.625 16.8438H10.2083C9.36265 16.8438 8.67708 16.1582 8.67708 15.3125Z" fill="#57E5EA"/>
<path d="M26.5417 28.5833C26.5417 31.9661 23.7994 34.7083 20.4167 34.7083C17.0339 34.7083 14.2917 31.9661 14.2917 28.5833C14.2917 25.2006 17.0339 22.4583 20.4167 22.4583C23.7994 22.4583 26.5417 25.2006 26.5417 28.5833Z" fill="#57E5EA"/>
<path d="M14.2939 28.4147C14.2924 28.4708 14.2917 28.527 14.2917 28.5833C14.2917 31.9661 17.0339 34.7083 20.4167 34.7083C23.7994 34.7083 26.5417 31.9661 26.5417 28.5833C26.5417 28.527 26.5409 28.4708 26.5394 28.4147C26.4501 25.1099 23.743 22.4583 20.4167 22.4583C17.2453 22.4583 14.637 24.8685 14.3233 27.9571C14.308 28.1081 14.2981 28.2607 14.2939 28.4147Z" fill="#57E5EA"/>
<path d="M11.5879 31.1341L9.38194 33.3094C8.72029 33.9618 8.38947 34.2881 8.27499 34.5643C8.01412 35.1939 8.23737 35.8922 8.80536 36.2234C9.05462 36.3687 9.50421 36.414 10.4034 36.5046C10.9111 36.5557 11.1649 36.5813 11.3775 36.6589C11.8535 36.8326 12.2238 37.1977 12.4 37.6671C12.4787 37.8768 12.5046 38.1271 12.5565 38.6277C12.6483 39.5144 12.6942 39.9577 12.8416 40.2035C13.1774 40.7636 13.8856 40.9838 14.524 40.7265C14.8042 40.6136 15.135 40.2874 15.7966 39.635L18.0025 37.4504C14.9145 36.6116 12.4729 34.2028 11.5879 31.1341Z" fill="#57E5EA"/>
<path d="M22.8308 37.4504L25.0367 39.635C25.6983 40.2874 26.0292 40.6136 26.3093 40.7265C26.9477 40.9838 27.6559 40.7636 27.9917 40.2035C28.1391 39.9577 28.185 39.5144 28.2769 38.6277C28.3287 38.1271 28.3547 37.8768 28.4334 37.6671C28.6096 37.1977 28.9798 36.8326 29.4558 36.6589C29.6684 36.5813 29.9223 36.5557 30.43 36.5046C31.3291 36.414 31.7787 36.3687 32.028 36.2234C32.596 35.8922 32.8192 35.1939 32.5583 34.5643C32.4439 34.2881 32.113 33.9618 31.4514 33.3094L29.2455 31.1341C28.3604 34.2028 25.9188 36.6116 22.8308 37.4504Z" fill="#57E5EA"/>
</svg>
