<svg width="22" height="22" viewBox="0 0 22 22" fill="none" xmlns="http://www.w3.org/2000/svg">
<path d="M10.5952 0.886719C8.64479 0.886719 7.0637 2.46781 7.0637 4.41819V9.71539C7.0637 11.6658 8.64479 13.2469 10.5952 13.2469C12.5455 13.2469 14.1266 11.6658 14.1266 9.71539V4.41819C14.1266 2.46781 12.5455 0.886719 10.5952 0.886719Z" fill="#FAFAFA"/>
<path d="M5.29796 8.83253C5.29796 8.34493 4.90269 7.94966 4.41509 7.94966C3.9275 7.94966 3.53223 8.34493 3.53223 8.83253V9.71539C3.53223 13.3172 6.22823 16.2892 9.7123 16.7237V18.5441H7.94656C7.45897 18.5441 7.0637 18.9393 7.0637 19.4269C7.0637 19.9145 7.45897 20.3098 7.94656 20.3098H13.2438C13.7314 20.3098 14.1266 19.9145 14.1266 19.4269C14.1266 18.9393 13.7314 18.5441 13.2438 18.5441H11.478V16.7237C14.9621 16.2892 17.6581 13.3172 17.6581 9.71539V8.83253C17.6581 8.34493 17.2628 7.94966 16.7752 7.94966C16.2876 7.94966 15.8924 8.34493 15.8924 8.83253V9.71539C15.8924 12.641 13.5207 15.0126 10.5952 15.0126C7.6696 15.0126 5.29796 12.641 5.29796 9.71539V8.83253Z" fill="#FAFAFA"/>
</svg>
