<svg width="20" height="20" viewBox="0 0 20 20" fill="none" xmlns="http://www.w3.org/2000/svg">
<g clip-path="url(#clip0_3088_1659)">
<path fill-rule="evenodd" clip-rule="evenodd" d="M8.24094 0.823242C4.14642 0.823242 0.827148 4.14251 0.827148 8.23703C0.827148 12.3316 4.14642 15.6508 8.24094 15.6508C9.99143 15.6508 11.6002 15.0442 12.8685 14.0296L17.5435 18.7046C17.8652 19.0263 18.3868 19.0263 18.7085 18.7046C19.0302 18.3829 19.0302 17.8613 18.7085 17.5396L14.0335 12.8646C15.0481 11.5963 15.6547 9.98752 15.6547 8.23703C15.6547 4.14251 12.3355 0.823242 8.24094 0.823242ZM2.47466 8.23703C2.47466 5.0524 5.05631 2.47075 8.24094 2.47075C11.4256 2.47075 14.0072 5.0524 14.0072 8.23703C14.0072 11.4217 11.4256 14.0033 8.24094 14.0033C5.05631 14.0033 2.47466 11.4217 2.47466 8.23703Z" fill="#FAFAFA"/>
</g>
<defs>
<clipPath id="clip0_3088_1659">
<rect width="19.7701" height="19.7701" fill="white"/>
</clipPath>
</defs>
</svg>
