<svg width="35" height="28" viewBox="0 0 35 28" fill="none" xmlns="http://www.w3.org/2000/svg">
<path d="M23.625 6.125C23.625 9.50774 20.8827 12.25 17.5 12.25C14.1173 12.25 11.375 9.50774 11.375 6.125C11.375 2.74226 14.1173 0 17.5 0C20.8827 0 23.625 2.74226 23.625 6.125Z" fill="#A7D0FF"/>
<path d="M28 21.875C28 25.2577 23.299 28 17.5 28C11.701 28 7 25.2577 7 21.875C7 18.4923 11.701 15.75 17.5 15.75C23.299 15.75 28 18.4923 28 21.875Z" fill="#A7D0FF"/>
<path d="M8.96358 1.75C9.27414 1.75 9.57733 1.78047 9.87009 1.83849C9.15686 3.1053 8.75 4.56764 8.75 6.125C8.75 7.64444 9.13729 9.07343 9.81854 10.3186C9.54178 10.3702 9.25595 10.3972 8.96358 10.3972C6.48836 10.3972 4.48179 8.46147 4.48179 6.07361C4.48179 3.68574 6.48836 1.75 8.96358 1.75Z" fill="#A7D0FF"/>
<path d="M6.03284 26.2254C5.03899 25.0374 4.375 23.5795 4.375 21.875C4.375 20.2226 4.999 18.802 5.94261 17.6343C2.60942 17.8928 0 19.7159 0 21.9264C0 24.1577 2.65528 25.9942 6.03284 26.2254Z" fill="#A7D0FF"/>
<path d="M26.249 6.125C26.249 7.64445 25.8617 9.07343 25.1805 10.3186C25.4572 10.3702 25.743 10.3972 26.0354 10.3972C28.5106 10.3972 30.5172 8.46147 30.5172 6.07361C30.5172 3.68574 28.5106 1.75 26.0354 1.75C25.7249 1.75 25.4217 1.78047 25.1289 1.83849C25.8421 3.1053 26.249 4.56764 26.249 6.125Z" fill="#A7D0FF"/>
<path d="M28.9662 26.2254C32.3437 25.9942 34.999 24.1577 34.999 21.9264C34.999 19.7159 32.3896 17.8928 29.0564 17.6343C30 18.802 30.624 20.2226 30.624 21.875C30.624 23.5795 29.96 25.0374 28.9662 26.2254Z" fill="#A7D0FF"/>
</svg>
